<svg width="4373" height="1577" xmlns="http://www.w3.org/2000/svg" xmlns:xlink="http://www.w3.org/1999/xlink" xml:space="preserve" overflow="hidden"><g transform="translate(-11 -246)"><rect x="402.5" y="644.5" width="592" height="300" stroke="#042433" stroke-width="6.875" stroke-miterlimit="8" fill="#0D0D0D"/><text fill="#FFFFFF" font-family="Aptos,Aptos_MSFontService,sans-serif" font-weight="400" font-size="83" transform="matrix(1 0 0 1 530.255 722)">Compute </text><text fill="#FFFFFF" font-family="Aptos,Aptos_MSFontService,sans-serif" font-weight="400" font-size="83" transform="matrix(1 0 0 1 547.191 821)">pairwise </text><text fill="#FFFFFF" font-family="Aptos,Aptos_MSFontService,sans-serif" font-weight="400" font-size="83" transform="matrix(1 0 0 1 523.587 920)">distances</text><rect x="1519.5" y="644.5" width="592" height="300" stroke="#042433" stroke-width="6.875" stroke-miterlimit="8" fill="#0D0D0D"/><text fill="#FFFFFF" font-family="Aptos,Aptos_MSFontService,sans-serif" font-weight="400" font-size="83" transform="matrix(1 0 0 1 1642.04 771)">Edge MLP</text><path d="M1798.45 835.256C1793.67 835.499 1789.53 837.566 1786.03 841.457 1782.53 845.348 1780.78 850.143 1780.78 855.844 1780.78 859.357 1781.72 862.302 1783.58 864.679 1785.44 867.057 1787.94 868.394 1791.08 868.691ZM1804.86 835.175 1797.48 868.651C1800.78 868.516 1803.78 867.53 1806.48 865.692 1809.18 863.855 1811.3 861.369 1812.84 858.235 1814.38 855.101 1815.15 851.697 1815.15 848.022 1815.15 845.861 1814.77 843.848 1814.02 841.984 1813.26 840.12 1812.09 838.573 1810.51 837.343 1808.93 836.114 1807.05 835.391 1804.86 835.175ZM1802.99 814.547 1809.4 814.547 1805.59 831.933C1811.04 832.338 1815.2 833.932 1818.05 836.715 1820.9 839.498 1822.32 843.267 1822.32 848.022 1822.32 851.616 1821.69 854.878 1820.42 857.81 1819.15 860.741 1817.28 863.308 1814.83 865.51 1812.37 867.712 1809.74 869.333 1806.94 870.373 1804.15 871.413 1800.74 871.934 1796.71 871.934L1793.02 888.793 1786.62 888.793 1790.31 871.934C1784.96 871.528 1780.84 869.927 1777.97 867.131 1775.09 864.335 1773.65 860.545 1773.65 855.763 1773.65 851.683 1774.71 847.827 1776.83 844.193 1778.95 840.559 1781.9 837.627 1785.67 835.398 1789.44 833.169 1793.95 832.014 1799.22 831.933Z" fill="#FFFFFF" fill-rule="evenodd"/><text fill="#000000" fill-opacity="0" font-family="Arial,Arial_MSFontService,sans-serif" font-size="74.2461" x="1773.65" y="879.512">ğœ™</text><path d="M1843.76 860.748C1842.67 860.748 1841.59 861.016 1840.53 861.552 1839.47 862.088 1838.46 862.848 1837.52 863.831 1836.58 864.814 1835.72 866.005 1834.94 867.405 1834.17 868.805 1833.52 870.369 1833.01 872.096 1835.53 872.076 1837.7 871.878 1839.52 871.5 1841.33 871.123 1842.82 870.607 1843.98 869.952 1845.14 869.296 1846 868.522 1846.54 867.628 1847.09 866.735 1847.36 865.752 1847.36 864.68 1847.36 863.448 1847.06 862.485 1846.44 861.79 1845.82 861.095 1844.93 860.748 1843.76 860.748ZM1845.04 857.799C1847.58 857.799 1849.51 858.355 1850.83 859.467 1852.15 860.579 1852.81 862.158 1852.81 864.203 1852.81 871.391 1846.01 874.985 1832.41 874.985 1832.31 875.502 1832.23 876.062 1832.17 876.668 1832.11 877.274 1832.08 877.934 1832.08 878.649 1832.08 880.813 1832.53 882.392 1833.41 883.385 1834.29 884.378 1835.67 884.874 1837.53 884.874 1838.51 884.874 1839.43 884.77 1840.3 884.561 1841.18 884.353 1842.04 884.03 1842.88 883.593 1843.73 883.156 1844.57 882.595 1845.43 881.91 1846.28 881.225 1847.18 880.406 1848.11 879.453L1850.34 881.866C1848.04 884.149 1845.74 885.867 1843.45 887.018 1841.15 888.17 1838.69 888.746 1836.05 888.746 1834.5 888.746 1833.12 888.513 1831.92 888.046 1830.72 887.579 1829.71 886.899 1828.88 886.006 1828.06 885.112 1827.43 884.025 1827.01 882.744 1826.58 881.464 1826.37 880.019 1826.37 878.411 1826.37 877.279 1826.46 876.102 1826.66 874.881 1826.86 873.66 1827.17 872.439 1827.59 871.217 1828 869.996 1828.52 868.805 1829.14 867.643 1829.75 866.482 1830.48 865.394 1831.31 864.382 1832.98 862.317 1834.99 860.703 1837.34 859.542 1839.69 858.38 1842.26 857.799 1845.04 857.799Z" fill="#FFFFFF" fill-rule="evenodd"/><text fill="#000000" fill-opacity="0" font-family="Arial,Arial_MSFontService,sans-serif" font-size="30.9468" x="1826.37" y="884.878">ğ‘’</text><path d="M2.35987e-06-3.4375 502.777-3.43716 502.777 3.43784-2.35987e-06 3.4375ZM498.194-13.7497 525.694 0.000360892 498.194 13.7503Z" transform="matrix(1 0 0 -1 994.5 794.5)"/><path d="M1418.64 640.142 1425.24 640.142 1425.24 776.314 1418.64 776.314ZM1090.82 640.142 1097.42 640.142 1097.42 776.314 1090.82 776.314Z" fill-rule="evenodd"/><path d="M1392.54 658.118 1398.78 658.118 1398.78 758.383 1392.54 758.383ZM1117.28 658.118 1123.53 658.118 1123.53 758.383 1117.28 758.383Z" fill-rule="evenodd"/><path d="M1149.38 692.503C1150.22 692.503 1150.96 692.598 1151.59 692.787 1152.23 692.976 1152.79 693.266 1153.27 693.658 1153.76 694.05 1154.19 694.556 1154.57 695.178 1154.95 695.799 1155.31 696.644 1155.67 697.711 1156.02 698.778 1156.35 700.102 1156.66 701.682 1156.97 703.263 1157.25 704.904 1157.49 706.607L1157.9 706.607C1160.49 702.959 1162.45 700.291 1163.79 698.602 1165.13 696.914 1166.26 695.657 1167.18 694.833 1168.09 694.009 1168.98 693.428 1169.83 693.091 1170.68 692.753 1171.81 692.584 1173.21 692.584 1174.48 692.584 1175.52 692.746 1176.33 693.07L1174.71 700.406 1171.88 700.406C1171.71 699.271 1171.24 698.704 1170.46 698.704 1170.22 698.704 1169.96 698.744 1169.69 698.825 1169.42 698.906 1169.09 699.082 1168.7 699.352 1168.3 699.622 1167.73 700.149 1166.97 700.933 1166.22 701.716 1165.37 702.675 1164.42 703.81 1163.47 704.945 1162.5 706.134 1161.5 707.377L1158.75 710.821C1159.23 713.415 1159.69 715.658 1160.12 717.549 1160.56 719.44 1160.94 721.014 1161.28 722.27 1161.62 723.527 1161.91 724.52 1162.17 725.249 1162.43 725.979 1162.7 726.526 1163 726.89 1163.3 727.255 1163.6 727.512 1163.91 727.66 1164.22 727.809 1164.58 727.883 1164.99 727.883 1165.72 727.883 1166.43 727.6 1167.11 727.032 1167.8 726.465 1168.8 725.182 1170.09 723.182L1172.73 724.925C1170.84 727.735 1169.13 729.714 1167.6 730.862 1166.07 732.01 1164.26 732.585 1162.15 732.585 1160.99 732.585 1160 732.375 1159.19 731.956 1158.38 731.538 1157.68 730.869 1157.08 729.95 1156.49 729.032 1155.96 727.6 1155.5 725.654 1154.67 722.196 1154.15 719.548 1153.96 717.711L1153.56 717.711C1150.69 721.737 1148.57 724.628 1147.18 726.384 1145.78 728.14 1144.64 729.437 1143.73 730.274 1142.83 731.112 1141.95 731.7 1141.1 732.037 1140.25 732.375 1139.12 732.544 1137.71 732.544 1136.44 732.544 1135.4 732.382 1134.59 732.058L1136.21 724.722 1139.05 724.722C1139.21 725.857 1139.68 726.424 1140.47 726.424 1140.85 726.424 1141.24 726.323 1141.66 726.12 1142.08 725.918 1142.68 725.431 1143.47 724.661 1144.25 723.891 1145.33 722.682 1146.71 721.034 1148.09 719.386 1150.09 716.914 1152.71 713.618 1152.3 711.483 1151.88 709.43 1151.45 707.458 1151.02 705.485 1150.57 703.648 1150.11 701.946 1149.65 700.244 1149.28 699.129 1148.98 698.602 1148.68 698.076 1148.36 697.711 1148.03 697.508 1147.69 697.305 1147.26 697.204 1146.75 697.204 1146.18 697.204 1145.67 697.333 1145.21 697.589 1144.75 697.846 1144.25 698.292 1143.71 698.927 1143.17 699.562 1142.45 700.554 1141.56 701.905L1138.93 700.163C1140.63 697.596 1142.27 695.678 1143.83 694.408 1145.4 693.138 1147.25 692.503 1149.38 692.503Z" fill-rule="evenodd"/><text fill="#000000" fill-opacity="0" font-family="Arial,Arial_MSFontService,sans-serif" font-size="40.0815" x="1134.59" y="727.574">ğ‘¥</text><path d="M1190.99 722.242 1192.44 722.242 1188.04 742.079C1187.76 743.251 1187.57 744.184 1187.46 744.879 1187.35 745.574 1187.29 746.199 1187.29 746.755 1187.29 747.51 1187.45 748.056 1187.75 748.393 1188.06 748.731 1188.52 748.9 1189.14 748.9 1189.5 748.9 1189.85 748.83 1190.21 748.691 1190.57 748.552 1190.95 748.334 1191.36 748.036 1191.76 747.738 1192.21 747.356 1192.7 746.889 1193.18 746.423 1193.73 745.862 1194.32 745.206L1196.35 747.172C1195.31 748.225 1194.38 749.113 1193.53 749.838 1192.69 750.563 1191.89 751.154 1191.13 751.61 1190.38 752.067 1189.64 752.395 1188.92 752.593 1188.19 752.792 1187.42 752.891 1186.61 752.891 1185.85 752.891 1185.17 752.752 1184.57 752.474 1183.96 752.196 1183.44 751.814 1183 751.327 1182.57 750.841 1182.23 750.26 1181.99 749.585 1181.75 748.91 1181.63 748.165 1181.63 747.351 1181.63 746.696 1181.71 745.882 1181.87 744.909 1182.03 743.936 1182.23 742.878 1182.48 741.736 1182.73 740.595 1183 739.398 1183.3 738.147 1183.6 736.896 1183.89 735.655 1184.18 734.424 1184.47 733.193 1184.73 732.007 1184.95 730.865 1185.18 729.723 1185.35 728.686 1185.45 727.752 1185.48 727.593 1185.5 727.44 1185.5 727.291 1185.5 727.142 1185.5 727.008 1185.5 726.889 1185.47 726.114 1185.19 725.548 1184.69 725.191 1184.18 724.833 1183.28 724.635 1181.99 724.595L1182.35 722.57ZM1189.26 710.239 1195.21 710.239 1193.76 716.642 1187.86 716.642Z" fill-rule="evenodd"/><text fill="#000000" fill-opacity="0" font-family="Arial,Arial_MSFontService,sans-serif" font-size="42.6523" x="1181.63" y="747.559">ğ‘–</text><path d="M1197.88 657.523 1200.03 657.523C1198.79 663.063 1197.67 668.127 1196.64 672.714 1195.62 677.3 1194.51 682.364 1193.29 687.904 1193.02 689.095 1192.82 690.034 1192.7 690.719 1192.58 691.404 1192.52 692.024 1192.52 692.58 1192.52 693.335 1192.67 693.881 1192.98 694.218 1193.29 694.556 1193.76 694.725 1194.4 694.725 1194.75 694.725 1195.11 694.655 1195.47 694.516 1195.83 694.377 1196.2 694.159 1196.6 693.861 1197 693.563 1197.44 693.181 1197.93 692.714 1198.41 692.248 1198.96 691.687 1199.58 691.031L1201.51 692.997C1200.5 694.03 1199.58 694.908 1198.76 695.633 1197.94 696.358 1197.15 696.949 1196.41 697.405 1195.66 697.862 1194.93 698.195 1194.2 698.403 1193.48 698.612 1192.7 698.716 1191.86 698.716 1191.11 698.716 1190.43 698.577 1189.82 698.299 1189.22 698.021 1188.7 697.639 1188.26 697.152 1187.82 696.666 1187.49 696.085 1187.25 695.41 1187.01 694.735 1186.89 693.99 1186.89 693.176 1186.89 692.441 1186.96 691.533 1187.11 690.451 1187.26 689.368 1187.5 688.142 1187.81 686.772 1188.67 682.96 1189.52 679.157 1190.36 675.364 1191.2 671.572 1191.89 668.663 1192.43 666.637 1192.91 664.473 1193.14 662.994 1193.14 662.199 1193.14 661.782 1193.09 661.435 1192.98 661.157 1192.87 660.879 1192.67 660.651 1192.39 660.472 1192.1 660.293 1191.71 660.164 1191.21 660.085 1190.71 660.005 1190.07 659.946 1189.27 659.906L1189.69 657.881Z" fill-rule="evenodd"/><text fill="#000000" fill-opacity="0" font-family="Arial,Arial_MSFontService,sans-serif" font-size="41.1929" x="1186.89" y="693.567">ğ‘™</text><path d="M1233.05 705.512 1282.98 705.512 1282.98 710.902 1233.05 710.902Z" fill-rule="evenodd"/><text fill="#000000" fill-opacity="0" font-family="Arial,Arial_MSFontService,sans-serif" font-size="5.39014" x="1233.05" y="710.229">âˆ’</text><path d="M1323.23 692.503C1324.07 692.503 1324.8 692.598 1325.44 692.787 1326.07 692.976 1326.63 693.266 1327.12 693.658 1327.61 694.05 1328.04 694.556 1328.42 695.178 1328.8 695.799 1329.16 696.644 1329.51 697.711 1329.86 698.778 1330.19 700.102 1330.5 701.682 1330.82 703.263 1331.09 704.904 1331.34 706.607L1331.74 706.607C1334.33 702.959 1336.3 700.291 1337.64 698.602 1338.97 696.914 1340.1 695.657 1341.02 694.833 1341.94 694.009 1342.83 693.428 1343.68 693.091 1344.53 692.753 1345.66 692.584 1347.06 692.584 1348.33 692.584 1349.37 692.746 1350.18 693.07L1348.56 700.406 1345.72 700.406C1345.56 699.271 1345.09 698.704 1344.3 698.704 1344.06 698.704 1343.8 698.744 1343.53 698.825 1343.26 698.906 1342.93 699.082 1342.54 699.352 1342.15 699.622 1341.58 700.149 1340.82 700.933 1340.06 701.716 1339.21 702.675 1338.27 703.81 1337.32 704.945 1336.35 706.134 1335.35 707.377L1332.59 710.821C1333.08 713.415 1333.54 715.658 1333.97 717.549 1334.4 719.44 1334.79 721.014 1335.12 722.27 1335.46 723.527 1335.76 724.52 1336.02 725.249 1336.27 725.979 1336.55 726.526 1336.85 726.89 1337.14 727.255 1337.45 727.512 1337.76 727.66 1338.07 727.809 1338.43 727.883 1338.83 727.883 1339.56 727.883 1340.27 727.6 1340.96 727.032 1341.65 726.465 1342.64 725.182 1343.94 723.182L1346.57 724.925C1344.68 727.735 1342.97 729.714 1341.45 730.862 1339.92 732.01 1338.1 732.585 1336 732.585 1334.83 732.585 1333.85 732.375 1333.04 731.956 1332.23 731.538 1331.52 730.869 1330.93 729.95 1330.34 729.032 1329.81 727.6 1329.35 725.654 1328.51 722.196 1328 719.548 1327.81 717.711L1327.4 717.711C1324.54 721.737 1322.41 724.628 1321.02 726.384 1319.63 728.14 1318.48 729.437 1317.58 730.274 1316.67 731.112 1315.79 731.7 1314.94 732.037 1314.09 732.375 1312.96 732.544 1311.56 732.544 1310.29 732.544 1309.25 732.382 1308.44 732.058L1310.06 724.722 1312.9 724.722C1313.06 725.857 1313.53 726.424 1314.31 726.424 1314.69 726.424 1315.09 726.323 1315.51 726.12 1315.93 725.918 1316.53 725.431 1317.31 724.661 1318.1 723.891 1319.18 722.682 1320.56 721.034 1321.93 719.386 1323.93 716.914 1326.55 713.618 1326.15 711.483 1325.73 709.43 1325.3 707.458 1324.86 705.485 1324.42 703.648 1323.96 701.946 1323.5 700.244 1323.12 699.129 1322.82 698.602 1322.53 698.076 1322.21 697.711 1321.87 697.508 1321.53 697.305 1321.11 697.204 1320.6 697.204 1320.03 697.204 1319.52 697.333 1319.06 697.589 1318.6 697.846 1318.1 698.292 1317.56 698.927 1317.02 699.562 1316.3 700.554 1315.41 701.905L1312.77 700.163C1314.48 697.596 1316.11 695.678 1317.68 694.408 1319.24 693.138 1321.1 692.503 1323.23 692.503Z" fill-rule="evenodd"/><text fill="#000000" fill-opacity="0" font-family="Arial,Arial_MSFontService,sans-serif" font-size="40.0815" x="1308.44" y="727.574">ğ‘¥</text><path d="M1364.8 722.242 1366.85 722.242 1360.66 751.432C1360.16 753.695 1359.52 755.636 1358.73 757.255 1357.95 758.873 1356.99 760.198 1355.86 761.231 1354.73 762.263 1353.41 763.023 1351.9 763.509 1350.39 763.996 1348.66 764.239 1346.72 764.239 1346.2 764.239 1345.7 764.214 1345.23 764.165 1344.75 764.115 1344.32 764.041 1343.95 763.941L1344.69 760.814C1344.93 760.913 1345.25 760.978 1345.64 761.007 1346.04 761.037 1346.5 761.052 1347.01 761.052 1347.99 761.052 1348.86 760.923 1349.62 760.665 1350.38 760.407 1351.07 759.94 1351.67 759.265 1352.28 758.59 1352.83 757.662 1353.31 756.48 1353.8 755.299 1354.25 753.785 1354.67 751.938 1355.36 748.721 1356.03 745.703 1356.66 742.883 1357.3 740.064 1357.82 737.701 1358.23 735.794 1358.63 733.888 1358.96 732.369 1359.2 731.237 1359.43 730.105 1359.61 729.232 1359.72 728.616 1359.83 728.001 1359.89 727.564 1359.91 727.306 1359.93 727.047 1359.94 726.839 1359.94 726.68 1359.94 725.985 1359.68 725.474 1359.15 725.146 1358.62 724.818 1357.7 724.635 1356.37 724.595L1356.81 722.57ZM1363.69 710.239 1369.68 710.239 1368.22 716.642 1362.23 716.642Z" fill-rule="evenodd"/><text fill="#000000" fill-opacity="0" font-family="Arial,Arial_MSFontService,sans-serif" font-size="54.0005" x="1343.95" y="757.489">ğ‘—</text><path d="M1371.73 657.523 1373.87 657.523C1372.64 663.063 1371.51 668.127 1370.49 672.714 1369.47 677.3 1368.35 682.364 1367.14 687.904 1366.86 689.095 1366.66 690.034 1366.54 690.719 1366.42 691.404 1366.37 692.024 1366.37 692.58 1366.37 693.335 1366.52 693.881 1366.83 694.218 1367.13 694.556 1367.61 694.725 1368.24 694.725 1368.6 694.725 1368.96 694.655 1369.31 694.516 1369.67 694.377 1370.05 694.159 1370.45 693.861 1370.84 693.563 1371.28 693.181 1371.77 692.714 1372.26 692.248 1372.81 691.687 1373.42 691.031L1375.36 692.997C1374.35 694.03 1373.43 694.908 1372.61 695.633 1371.78 696.358 1371 696.949 1370.25 697.405 1369.51 697.862 1368.77 698.195 1368.05 698.403 1367.32 698.612 1366.54 698.716 1365.71 698.716 1364.96 698.716 1364.28 698.577 1363.67 698.299 1363.06 698.021 1362.54 697.639 1362.11 697.152 1361.67 696.666 1361.33 696.085 1361.09 695.41 1360.85 694.735 1360.74 693.99 1360.74 693.176 1360.74 692.441 1360.81 691.533 1360.96 690.451 1361.11 689.368 1361.34 688.142 1361.66 686.772 1362.51 682.96 1363.36 679.157 1364.21 675.364 1365.05 671.572 1365.74 668.663 1366.28 666.637 1366.75 664.473 1366.99 662.994 1366.99 662.199 1366.99 661.782 1366.94 661.435 1366.83 661.157 1366.72 660.879 1366.52 660.651 1366.23 660.472 1365.94 660.293 1365.55 660.164 1365.05 660.085 1364.56 660.005 1363.91 659.946 1363.12 659.906L1363.54 657.881Z" fill-rule="evenodd"/><text fill="#000000" fill-opacity="0" font-family="Arial,Arial_MSFontService,sans-serif" font-size="41.1929" x="1360.74" y="693.567">ğ‘™</text><path d="M1452.88 620.673C1454.94 620.673 1456.71 620.906 1458.17 621.373 1459.62 621.839 1460.81 622.47 1461.72 623.264 1462.64 624.058 1463.3 625.011 1463.71 626.123 1464.11 627.235 1464.32 628.437 1464.32 629.727 1464.32 630.502 1464.26 631.222 1464.15 631.887 1464.04 632.552 1463.85 633.207 1463.59 633.853 1463.32 634.498 1462.97 635.148 1462.53 635.804 1462.09 636.459 1461.55 637.154 1460.89 637.888 1460.39 638.524 1459.75 639.259 1458.95 640.093 1458.16 640.927 1457.29 641.82 1456.35 642.773 1455.41 643.726 1454.42 644.719 1453.38 645.752 1452.35 646.784 1451.35 647.807 1450.38 648.82 1449.4 649.832 1448.51 650.815 1447.7 651.768 1446.88 652.721 1446.22 653.595 1445.7 654.389L1456.72 654.389C1457.65 654.389 1458.4 654.355 1458.95 654.285 1459.51 654.216 1459.97 654.062 1460.34 653.824 1460.71 653.585 1461.02 653.223 1461.28 652.736 1461.54 652.25 1461.83 651.58 1462.17 650.726L1464.94 650.726C1464.84 652.136 1464.75 653.555 1464.66 654.985 1464.57 656.415 1464.47 657.835 1464.38 659.244L1439.15 659.244 1439.15 657.696C1439.62 656.623 1440.18 655.566 1440.82 654.523 1441.45 653.481 1442.17 652.424 1442.96 651.351 1443.75 650.279 1444.66 649.172 1445.67 648.03 1446.68 646.889 1447.81 645.702 1449.04 644.471 1450.9 642.604 1452.42 641.011 1453.59 639.69 1454.76 638.37 1455.69 637.193 1456.36 636.161 1457.04 635.128 1457.5 634.175 1457.75 633.302 1458 632.428 1458.12 631.495 1458.12 630.502 1458.12 629.489 1457.98 628.556 1457.69 627.702 1457.4 626.848 1456.99 626.123 1456.45 625.528 1455.92 624.932 1455.24 624.465 1454.41 624.128 1453.59 623.79 1452.64 623.621 1451.57 623.621 1449.72 623.621 1448.17 624.123 1446.92 625.126 1445.67 626.128 1444.7 627.583 1444 629.489L1440.1 629.489 1440.1 623.681C1442.64 622.629 1444.98 621.864 1447.12 621.388 1449.25 620.911 1451.17 620.673 1452.88 620.673Z" fill-rule="evenodd"/><text fill="#000000" fill-opacity="0" font-family="Arial,Arial_MSFontService,sans-serif" font-size="38.5718" x="1439.15" y="654.423">2</text><rect x="2595.5" y="644.5" width="592" height="300" stroke="#042433" stroke-width="6.875" stroke-miterlimit="8" fill="#0D0D0D"/><text fill="#FFFFFF" font-family="Aptos,Aptos_MSFontService,sans-serif" font-weight="400" font-size="83" transform="matrix(1 0 0 1 2642.26 771)">Positions MLP</text><path d="M2872.88 835.256C2868.1 835.499 2863.96 837.566 2860.46 841.457 2856.96 845.348 2855.21 850.143 2855.21 855.844 2855.21 859.357 2856.14 862.302 2858.01 864.679 2859.87 867.057 2862.37 868.394 2865.5 868.691ZM2879.28 835.175 2871.91 868.651C2875.2 868.516 2878.2 867.53 2880.9 865.692 2883.61 863.855 2885.73 861.369 2887.27 858.235 2888.81 855.101 2889.58 851.697 2889.58 848.022 2889.58 845.861 2889.2 843.848 2888.44 841.984 2887.69 840.12 2886.52 838.573 2884.94 837.343 2883.36 836.114 2881.47 835.391 2879.28 835.175ZM2877.42 814.547 2883.82 814.547 2880.01 831.933C2885.47 832.338 2889.62 833.932 2892.47 836.715 2895.33 839.498 2896.75 843.267 2896.75 848.022 2896.75 851.616 2896.12 854.878 2894.85 857.81 2893.58 860.741 2891.71 863.308 2889.25 865.51 2886.79 867.712 2884.17 869.333 2881.37 870.373 2878.57 871.413 2875.16 871.934 2871.14 871.934L2867.45 888.793 2861.05 888.793 2864.73 871.934C2859.38 871.528 2855.27 869.927 2852.39 867.131 2849.52 864.335 2848.08 860.545 2848.08 855.763 2848.08 851.683 2849.14 847.827 2851.26 844.193 2853.38 840.559 2856.32 837.627 2860.09 835.398 2863.86 833.169 2868.38 832.014 2873.65 831.933Z" fill="#FFFFFF" fill-rule="evenodd"/><text fill="#000000" fill-opacity="0" font-family="Arial,Arial_MSFontService,sans-serif" font-size="74.2461" x="2848.08" y="879.512">ğœ™</text><path d="M2910.2 857.799C2911.3 857.799 2912.19 858.038 2912.88 858.514 2913.58 858.991 2914.16 859.686 2914.61 860.599 2915.07 861.512 2915.45 862.639 2915.74 863.98 2916.04 865.32 2916.36 866.854 2916.7 868.581L2917.08 868.581C2918.28 867.013 2919.31 865.653 2920.18 864.501 2921.06 863.349 2921.84 862.376 2922.52 861.582 2923.21 860.788 2923.82 860.142 2924.37 859.646 2924.91 859.15 2925.44 858.767 2925.96 858.499 2926.48 858.231 2927.01 858.047 2927.55 857.948 2928.1 857.849 2928.71 857.799 2929.39 857.799 2930.38 857.799 2931.28 857.978 2932.1 858.335L2930.61 864.203 2928.13 864.203C2928.08 863.349 2927.76 862.922 2927.18 862.922 2926.96 862.922 2926.72 862.962 2926.47 863.041 2926.21 863.121 2925.9 863.28 2925.54 863.518 2925.19 863.756 2924.77 864.089 2924.31 864.516 2923.84 864.943 2923.29 865.499 2922.65 866.184 2922.02 866.869 2921.29 867.708 2920.48 868.701 2919.67 869.693 2918.73 870.865 2917.68 872.215 2918.22 874.956 2918.68 877.15 2919.07 878.798 2919.45 880.446 2919.82 881.707 2920.18 882.581 2920.54 883.454 2920.9 884.025 2921.25 884.293 2921.61 884.561 2922.02 884.695 2922.48 884.695 2922.81 884.695 2923.13 884.656 2923.41 884.576 2923.7 884.497 2924 884.323 2924.31 884.055 2924.62 883.787 2924.96 883.4 2925.33 882.893 2925.71 882.387 2926.16 881.717 2926.68 880.883L2928.91 882.342C2928.04 883.653 2927.26 884.725 2926.59 885.559 2925.91 886.393 2925.26 887.048 2924.62 887.525 2923.98 888.001 2923.33 888.324 2922.65 888.493 2921.98 888.662 2921.2 888.746 2920.33 888.746 2919.58 888.746 2918.9 888.642 2918.31 888.433 2917.71 888.225 2917.19 887.843 2916.76 887.287 2916.46 886.949 2916.18 886.497 2915.92 885.931 2915.66 885.365 2915.43 884.755 2915.21 884.1 2914.99 883.444 2914.79 882.764 2914.61 882.059 2914.43 881.354 2914.28 880.694 2914.17 880.079 2914.05 879.463 2913.95 878.912 2913.88 878.425 2913.81 877.939 2913.77 877.577 2913.75 877.338L2913.42 877.338C2912.23 878.927 2911.19 880.312 2910.31 881.493 2909.42 882.675 2908.63 883.688 2907.91 884.531 2907.2 885.375 2906.55 886.07 2905.97 886.616 2905.4 887.162 2904.83 887.594 2904.28 887.912 2903.72 888.23 2903.15 888.448 2902.56 888.567 2901.98 888.686 2901.33 888.746 2900.61 888.746 2899.58 888.746 2898.7 888.567 2897.96 888.21L2899.33 882.402 2901.86 882.402C2901.92 883.276 2902.25 883.712 2902.85 883.712 2903.07 883.693 2903.28 883.653 2903.49 883.593 2903.7 883.534 2903.94 883.41 2904.22 883.221 2904.5 883.032 2904.85 882.734 2905.27 882.327 2905.7 881.92 2906.24 881.354 2906.9 880.63 2907.55 879.905 2908.36 878.996 2909.31 877.904 2910.26 876.812 2911.41 875.462 2912.74 873.853 2912.38 872.185 2912.07 870.736 2911.8 869.505 2911.53 868.274 2911.28 867.216 2911.05 866.333 2910.82 865.449 2910.6 864.729 2910.38 864.173 2910.16 863.617 2909.94 863.175 2909.71 862.848 2909.48 862.52 2909.24 862.287 2908.97 862.148 2908.7 862.009 2908.39 861.929 2908.03 861.91 2907.69 861.91 2907.38 861.964 2907.09 862.073 2906.8 862.183 2906.51 862.376 2906.2 862.654 2905.89 862.932 2905.55 863.319 2905.19 863.816 2904.82 864.312 2904.4 864.958 2903.92 865.752L2901.63 864.263C2902.44 863.051 2903.17 862.029 2903.83 861.195 2904.49 860.361 2905.13 859.696 2905.77 859.199 2906.4 858.703 2907.07 858.345 2907.78 858.127 2908.48 857.908 2909.29 857.799 2910.2 857.799Z" fill="#FFFFFF" fill-rule="evenodd"/><text fill="#000000" fill-opacity="0" font-family="Arial,Arial_MSFontService,sans-serif" font-size="30.9468" x="2897.96" y="884.878">ğ‘¥</text><path d="M2111.5 791.062 2572.9 791.063 2572.9 797.938 2111.5 797.937ZM2568.32 780.75 2595.82 794.5 2568.32 808.25Z"/><path d="M2303.61 699.441C2305.31 699.441 2306.65 700.002 2307.64 701.123 2308.63 702.245 2309.12 703.71 2309.12 705.52 2309.12 707.006 2308.81 708.587 2308.19 710.262L2308.67 710.424C2311.16 706.723 2313.63 703.974 2316.09 702.177 2318.55 700.38 2321.03 699.482 2323.55 699.482 2326.14 699.482 2328.11 700.218 2329.46 701.691 2330.81 703.163 2331.49 705.291 2331.49 708.074L2331.49 708.641C2331.49 708.83 2331.48 709.033 2331.45 709.249 2333.77 705.953 2336.09 703.501 2338.4 701.893 2340.71 700.286 2343.11 699.482 2345.59 699.482 2348.08 699.482 2350 700.198 2351.35 701.63 2352.7 703.062 2353.37 705.075 2353.37 707.668 2353.37 709.371 2352.98 711.789 2352.2 714.923L2349.57 725.541C2348.84 728.486 2348.47 730.566 2348.47 731.782 2348.47 732.863 2348.65 733.646 2349 734.133 2349.35 734.619 2349.9 734.862 2350.66 734.862 2351.47 734.862 2352.33 734.531 2353.25 733.869 2354.17 733.207 2355.47 731.944 2357.14 730.08L2359.45 732.35C2357.13 734.808 2355.1 736.618 2353.37 737.78 2351.65 738.942 2349.67 739.523 2347.46 739.523 2345.7 739.523 2344.3 738.895 2343.24 737.638 2342.19 736.382 2341.66 734.781 2341.66 732.836 2341.66 731.08 2342.11 728.499 2343 725.095L2344.78 718.084C2345.43 715.544 2345.86 713.666 2346.06 712.451 2346.26 711.235 2346.36 710.249 2346.36 709.492 2346.36 707.628 2346.05 706.284 2345.43 705.46 2344.81 704.636 2343.8 704.224 2342.39 704.224 2341.26 704.224 2340.04 704.649 2338.74 705.5 2337.45 706.351 2336.08 707.675 2334.65 709.472 2333.22 711.269 2332.05 713.038 2331.15 714.781 2330.24 716.524 2329.52 718.651 2328.98 721.164L2325.29 738.874 2318.28 738.874 2322.94 718.287C2323.51 715.774 2323.89 713.916 2324.09 712.714 2324.3 711.512 2324.4 710.478 2324.4 709.614 2324.4 707.668 2324.05 706.284 2323.36 705.46 2322.68 704.636 2321.6 704.224 2320.14 704.224 2319.12 704.224 2317.95 704.649 2316.64 705.5 2315.33 706.351 2313.93 707.716 2312.44 709.593 2310.96 711.471 2309.79 713.275 2308.96 715.004 2308.12 716.733 2307.42 718.84 2306.85 721.326L2303 738.874 2295.99 738.874 2301.91 713.18C2302.5 710.586 2302.8 708.587 2302.8 707.182 2302.8 706.101 2302.62 705.318 2302.27 704.831 2301.92 704.345 2301.36 704.102 2300.61 704.102 2299.77 704.102 2298.89 704.446 2297.95 705.135 2297.02 705.824 2295.74 707.074 2294.12 708.884L2291.81 706.615C2294.19 704.129 2296.24 702.312 2297.95 701.164 2299.67 700.016 2301.55 699.441 2303.61 699.441Z" fill-rule="evenodd"/><text fill="#000000" fill-opacity="0" font-family="Arial,Arial_MSFontService,sans-serif" font-size="40.0815" x="2291.81" y="734.513">ğ‘š</text><path d="M2402.76 725.605 2404.81 725.605 2398.62 754.795C2398.12 757.059 2397.48 759 2396.7 760.618 2395.91 762.236 2394.95 763.562 2393.82 764.594 2392.69 765.627 2391.37 766.386 2389.86 766.873 2388.35 767.359 2386.62 767.602 2384.68 767.602 2384.16 767.602 2383.67 767.578 2383.19 767.528 2382.71 767.478 2382.29 767.404 2381.91 767.305L2382.65 764.177C2382.89 764.276 2383.21 764.341 2383.61 764.371 2384 764.401 2384.46 764.415 2384.98 764.415 2385.95 764.415 2386.82 764.286 2387.58 764.028 2388.35 763.77 2389.03 763.303 2389.64 762.628 2390.24 761.953 2390.79 761.025 2391.28 759.843 2391.76 758.662 2392.21 757.148 2392.63 755.301 2393.33 752.084 2393.99 749.066 2394.63 746.247 2395.26 743.427 2395.78 741.064 2396.19 739.158 2396.6 737.251 2396.92 735.732 2397.16 734.601 2397.4 733.469 2397.57 732.595 2397.68 731.979 2397.79 731.364 2397.85 730.927 2397.87 730.669 2397.89 730.411 2397.9 730.202 2397.9 730.043 2397.9 729.348 2397.64 728.837 2397.11 728.509 2396.59 728.182 2395.66 727.998 2394.33 727.958L2394.78 725.933ZM2374.46 725.605 2375.92 725.605 2371.51 745.442C2371.23 746.614 2371.04 747.547 2370.93 748.242 2370.82 748.937 2370.77 749.563 2370.77 750.119 2370.77 750.873 2370.92 751.419 2371.23 751.757 2371.54 752.094 2372 752.263 2372.61 752.263 2372.97 752.263 2373.33 752.194 2373.69 752.055 2374.04 751.916 2374.43 751.697 2374.83 751.399 2375.24 751.102 2375.69 750.719 2376.17 750.253 2376.66 749.786 2377.2 749.225 2377.8 748.57L2379.82 750.536C2378.79 751.588 2377.85 752.477 2377.01 753.201 2376.16 753.926 2375.36 754.517 2374.61 754.974 2373.86 755.43 2373.12 755.758 2372.39 755.956 2371.67 756.155 2370.9 756.254 2370.08 756.254 2369.33 756.254 2368.65 756.115 2368.04 755.837 2367.44 755.559 2366.92 755.177 2366.48 754.691 2366.04 754.204 2365.7 753.623 2365.47 752.948 2365.23 752.273 2365.11 751.528 2365.11 750.714 2365.11 750.059 2365.19 749.245 2365.35 748.272 2365.51 747.299 2365.71 746.242 2365.96 745.1 2366.21 743.958 2366.48 742.762 2366.78 741.511 2367.07 740.26 2367.37 739.019 2367.66 737.788 2367.94 736.556 2368.2 735.37 2368.43 734.228 2368.66 733.086 2368.82 732.049 2368.92 731.116 2368.96 730.957 2368.98 730.803 2368.98 730.654 2368.98 730.505 2368.98 730.371 2368.98 730.252 2368.94 729.477 2368.67 728.912 2368.16 728.554 2367.66 728.197 2366.76 727.998 2365.47 727.958L2365.82 725.933ZM2401.66 713.602 2407.64 713.602 2406.18 720.006 2400.2 720.006ZM2372.73 713.602 2378.69 713.602 2377.23 720.006 2371.33 720.006Z" fill-rule="evenodd"/><text fill="#000000" fill-opacity="0" font-family="Arial,Arial_MSFontService,sans-serif" font-size="54.0005" x="2365.11" y="760.852">ğ‘–ğ‘—</text><rect x="16.0002" y="724" width="177" height="141" stroke="#4EA72E" stroke-width="10.3125" stroke-linejoin="round" stroke-miterlimit="10" fill="none"/><path d="M82.6238 784.764C83.4614 784.764 84.1976 784.858 84.8325 785.047 85.4675 785.237 86.0281 785.527 86.5144 785.919 87.0008 786.31 87.433 786.817 87.8113 787.438 88.1896 788.06 88.5543 788.904 88.9055 789.971 89.2568 791.039 89.5877 792.363 89.8985 793.943 90.2092 795.524 90.4861 797.165 90.7293 798.867L91.1345 798.867C93.7283 795.22 95.6939 792.552 97.0313 790.863 98.3687 789.174 99.4967 787.918 100.415 787.094 101.334 786.27 102.219 785.689 103.07 785.351 103.921 785.014 105.049 784.845 106.454 784.845 107.724 784.845 108.764 785.007 109.574 785.331L107.953 792.667 105.116 792.667C104.954 791.532 104.482 790.964 103.698 790.964 103.455 790.964 103.198 791.005 102.928 791.086 102.658 791.167 102.327 791.343 101.935 791.613 101.543 791.883 100.969 792.41 100.213 793.193 99.4562 793.977 98.6051 794.936 97.6594 796.071 96.7138 797.206 95.7411 798.394 94.7415 799.637L91.9856 803.082C92.4719 805.676 92.9313 807.918 93.3635 809.81 93.7958 811.701 94.1808 813.275 94.5186 814.531 94.8563 815.787 95.1535 816.78 95.4102 817.51 95.6668 818.239 95.9438 818.786 96.241 819.151 96.5382 819.516 96.8421 819.773 97.1529 819.921 97.4636 820.07 97.8216 820.144 98.2268 820.144 98.9563 820.144 99.6655 819.86 100.355 819.293 101.043 818.726 102.036 817.442 103.333 815.443L105.968 817.186C104.076 819.995 102.367 821.975 100.841 823.123 99.3143 824.271 97.4973 824.845 95.3899 824.845 94.2281 824.845 93.242 824.636 92.4314 824.217 91.6209 823.798 90.9184 823.13 90.324 822.211 89.7296 821.292 89.2027 819.86 88.7434 817.915 87.9059 814.457 87.3925 811.809 87.2034 809.972L86.7981 809.972C83.9342 813.997 81.8065 816.888 80.4151 818.645 79.0236 820.401 77.8754 821.698 76.9702 822.535 76.0651 823.373 75.187 823.96 74.336 824.298 73.4849 824.636 72.3569 824.805 70.9519 824.805 69.6821 824.805 68.6419 824.643 67.8313 824.318L69.4524 816.983 72.2893 816.983C72.4514 818.118 72.9243 818.685 73.7078 818.685 74.086 818.685 74.4846 818.584 74.9033 818.381 75.3221 818.178 75.9233 817.692 76.7068 816.922 77.4903 816.152 78.5711 814.943 79.949 813.295 81.3269 811.647 83.3263 809.175 85.947 805.878 85.5418 803.744 85.123 801.691 84.6907 799.718 84.2584 797.746 83.8126 795.909 83.3533 794.207 82.894 792.504 82.5157 791.39 82.2185 790.863 81.9213 790.336 81.6039 789.971 81.2661 789.769 80.9284 789.566 80.5029 789.465 79.9895 789.465 79.4221 789.465 78.9088 789.593 78.4495 789.85 77.9902 790.107 77.4903 790.552 76.95 791.187 76.4096 791.822 75.6936 792.815 74.802 794.166L72.1677 792.423C73.8699 789.857 75.5045 787.938 77.0716 786.668 78.6386 785.399 80.4894 784.764 82.6238 784.764Z" fill-rule="evenodd"/><text fill="#000000" fill-opacity="0" font-family="Arial,Arial_MSFontService,sans-serif" font-size="40.0815" x="67.8313" y="819.835">ğ‘¥</text><path d="M124.225 814.503 125.684 814.503 121.276 834.34C120.998 835.511 120.805 836.444 120.695 837.139 120.586 837.834 120.532 838.46 120.532 839.016 120.532 839.771 120.685 840.317 120.993 840.654 121.301 840.992 121.763 841.16 122.378 841.16 122.736 841.16 123.093 841.091 123.45 840.952 123.808 840.813 124.19 840.595 124.597 840.297 125.004 839.999 125.451 839.617 125.938 839.15 126.424 838.683 126.965 838.122 127.561 837.467L129.586 839.433C128.554 840.485 127.615 841.374 126.771 842.099 125.928 842.823 125.128 843.414 124.374 843.871 123.619 844.328 122.88 844.655 122.155 844.854 121.43 845.052 120.661 845.152 119.846 845.152 119.092 845.152 118.412 845.013 117.806 844.735 117.201 844.457 116.679 844.074 116.242 843.588 115.806 843.101 115.468 842.521 115.23 841.846 114.991 841.17 114.872 840.426 114.872 839.612 114.872 838.956 114.952 838.142 115.111 837.169 115.269 836.196 115.473 835.139 115.721 833.997 115.969 832.855 116.242 831.659 116.54 830.408 116.838 829.157 117.131 827.916 117.419 826.685 117.707 825.454 117.965 824.267 118.193 823.126 118.422 821.984 118.586 820.946 118.685 820.013 118.725 819.854 118.744 819.7 118.744 819.551 118.744 819.402 118.744 819.268 118.744 819.149 118.705 818.375 118.432 817.809 117.925 817.451 117.419 817.094 116.52 816.896 115.23 816.856L115.587 814.83ZM122.497 802.499 128.454 802.499 126.995 808.903 121.097 808.903Z" fill-rule="evenodd"/><text fill="#000000" fill-opacity="0" font-family="Arial,Arial_MSFontService,sans-serif" font-size="42.6523" x="114.872" y="839.82">ğ‘–</text><path d="M131.12 749.784 133.265 749.784C132.034 755.324 130.907 760.387 129.884 764.974 128.861 769.561 127.745 774.625 126.533 780.165 126.255 781.356 126.057 782.294 125.938 782.979 125.818 783.664 125.759 784.285 125.759 784.841 125.759 785.596 125.913 786.142 126.22 786.479 126.528 786.817 127 786.985 127.635 786.985 127.993 786.985 128.35 786.916 128.708 786.777 129.065 786.638 129.442 786.42 129.839 786.122 130.237 785.824 130.678 785.442 131.165 784.975 131.651 784.508 132.202 783.947 132.818 783.292L134.754 785.258C133.741 786.29 132.823 787.169 131.999 787.894 131.175 788.619 130.39 789.209 129.646 789.666 128.901 790.123 128.166 790.455 127.442 790.664 126.717 790.872 125.938 790.977 125.104 790.977 124.349 790.977 123.669 790.838 123.063 790.56 122.458 790.282 121.936 789.899 121.5 789.413 121.063 788.926 120.725 788.346 120.487 787.671 120.249 786.995 120.129 786.251 120.129 785.437 120.129 784.702 120.204 783.794 120.353 782.711 120.502 781.629 120.735 780.403 121.053 779.033 121.907 775.22 122.755 771.418 123.599 767.625 124.443 763.832 125.133 760.923 125.669 758.898 126.146 756.734 126.384 755.254 126.384 754.46 126.384 754.043 126.33 753.696 126.22 753.418 126.111 753.14 125.913 752.911 125.625 752.733 125.337 752.554 124.945 752.425 124.448 752.345 123.952 752.266 123.307 752.206 122.512 752.167L122.929 750.141Z" fill-rule="evenodd"/><text fill="#000000" fill-opacity="0" font-family="Arial,Arial_MSFontService,sans-serif" font-size="41.1929" x="120.129" y="785.828">ğ‘™</text><path d="M193.5 791.062 380.103 791.063 380.103 797.938 193.5 797.937ZM375.52 780.75 403.02 794.5 375.52 808.25Z" fill="#4EA72E"/><path d="M695.062 644.5 695.062 558.562 2894.8 558.562 2894.8 621.583 2887.93 621.583 2887.93 562 2891.37 565.438 698.5 565.438 701.938 562 701.938 644.5ZM2905.12 617 2891.37 644.5 2877.62 617Z"/><path d="M1682.15 444.979 1683.24 448.1C1676.92 450.18 1672.24 454.24 1669.2 460.278 1666.16 466.317 1664.64 473.902 1664.64 483.034 1664.64 492.491 1666.16 500.285 1669.2 506.418 1672.24 512.552 1676.88 516.658 1683.12 518.739L1682.15 521.859C1674.23 519.779 1668.17 515.301 1663.95 508.425 1659.74 501.548 1657.63 493.22 1657.63 483.439 1657.63 473.686 1659.74 465.358 1663.97 458.454 1668.2 451.551 1674.26 447.059 1682.15 444.979Z" fill-rule="evenodd"/><text fill="#000000" fill-opacity="0" font-family="Arial,Arial_MSFontService,sans-serif" font-size="76.8803" x="1657.63" y="512.249">(</text><path d="M1700.72 464.108C1701.55 464.108 1702.29 464.203 1702.93 464.392 1703.56 464.581 1704.12 464.871 1704.61 465.263 1705.09 465.655 1705.53 466.161 1705.9 466.783 1706.28 467.404 1706.65 468.248 1707 469.316 1707.35 470.383 1707.68 471.707 1707.99 473.287 1708.3 474.868 1708.58 476.509 1708.82 478.211L1709.23 478.211C1711.82 474.564 1713.79 471.896 1715.12 470.207 1716.46 468.519 1717.59 467.262 1718.51 466.438 1719.43 465.614 1720.31 465.033 1721.16 464.696 1722.01 464.358 1723.14 464.189 1724.55 464.189 1725.82 464.189 1726.86 464.351 1727.67 464.675L1726.05 472.011 1723.21 472.011C1723.05 470.876 1722.57 470.309 1721.79 470.309 1721.55 470.309 1721.29 470.349 1721.02 470.43 1720.75 470.511 1720.42 470.687 1720.03 470.957 1719.64 471.227 1719.06 471.754 1718.31 472.538 1717.55 473.321 1716.7 474.28 1715.75 475.415 1714.81 476.55 1713.83 477.739 1712.83 478.981L1710.08 482.426C1710.57 485.02 1711.02 487.263 1711.46 489.154 1711.89 491.045 1712.27 492.619 1712.61 493.875 1712.95 495.132 1713.25 496.125 1713.5 496.854 1713.76 497.584 1714.04 498.131 1714.33 498.495 1714.63 498.86 1714.94 499.117 1715.25 499.265 1715.56 499.414 1715.91 499.488 1716.32 499.488 1717.05 499.488 1717.76 499.205 1718.45 498.637 1719.14 498.07 1720.13 496.786 1721.43 494.787L1724.06 496.53C1722.17 499.34 1720.46 501.319 1718.93 502.467 1717.41 503.615 1715.59 504.189 1713.48 504.189 1712.32 504.189 1711.34 503.98 1710.52 503.561 1709.71 503.143 1709.01 502.474 1708.42 501.555 1707.82 500.637 1707.3 499.205 1706.84 497.259 1706 493.801 1705.49 491.153 1705.3 489.316L1704.89 489.316C1702.03 493.342 1699.9 496.233 1698.51 497.989 1697.12 499.745 1695.97 501.042 1695.06 501.879 1694.16 502.717 1693.28 503.305 1692.43 503.642 1691.58 503.98 1690.45 504.149 1689.05 504.149 1687.78 504.149 1686.74 503.987 1685.92 503.663L1687.55 496.327 1690.38 496.327C1690.54 497.462 1691.02 498.029 1691.8 498.029 1692.18 498.029 1692.58 497.928 1693 497.725 1693.42 497.523 1694.02 497.036 1694.8 496.266 1695.58 495.496 1696.66 494.287 1698.04 492.639 1699.42 490.991 1701.42 488.519 1704.04 485.223 1703.64 483.088 1703.22 481.035 1702.78 479.063 1702.35 477.09 1701.91 475.253 1701.45 473.551 1700.99 471.849 1700.61 470.734 1700.31 470.207 1700.01 469.68 1699.7 469.316 1699.36 469.113 1699.02 468.91 1698.6 468.809 1698.08 468.809 1697.52 468.809 1697 468.937 1696.54 469.194 1696.08 469.451 1695.58 469.897 1695.04 470.532 1694.5 471.166 1693.79 472.159 1692.9 473.51L1690.26 471.768C1691.96 469.201 1693.6 467.283 1695.16 466.013 1696.73 464.743 1698.58 464.108 1700.72 464.108Z" fill-rule="evenodd"/><text fill="#000000" fill-opacity="0" font-family="Arial,Arial_MSFontService,sans-serif" font-size="40.0815" x="1685.92" y="499.179">ğ‘¥</text><path d="M1742.32 493.847 1743.78 493.847 1739.37 513.684C1739.09 514.855 1738.9 515.789 1738.79 516.484 1738.68 517.179 1738.62 517.804 1738.62 518.36 1738.62 519.115 1738.78 519.661 1739.09 519.998 1739.39 520.336 1739.86 520.505 1740.47 520.505 1740.83 520.505 1741.19 520.435 1741.54 520.296 1741.9 520.157 1742.28 519.939 1742.69 519.641 1743.1 519.343 1743.54 518.961 1744.03 518.494 1744.52 518.028 1745.06 517.467 1745.65 516.811L1747.68 518.777C1746.65 519.83 1745.71 520.718 1744.86 521.443 1744.02 522.168 1743.22 522.758 1742.47 523.215 1741.71 523.672 1740.97 524 1740.25 524.198 1739.52 524.397 1738.75 524.496 1737.94 524.496 1737.19 524.496 1736.51 524.357 1735.9 524.079 1735.29 523.801 1734.77 523.419 1734.34 522.932 1733.9 522.446 1733.56 521.865 1733.32 521.19 1733.08 520.515 1732.97 519.77 1732.97 518.956 1732.97 518.301 1733.05 517.486 1733.2 516.513 1733.36 515.541 1733.57 514.483 1733.81 513.341 1734.06 512.2 1734.34 511.003 1734.63 509.752 1734.93 508.501 1735.22 507.26 1735.51 506.029 1735.8 504.798 1736.06 503.612 1736.29 502.47 1736.52 501.328 1736.68 500.29 1736.78 499.357 1736.82 499.198 1736.84 499.044 1736.84 498.896 1736.84 498.747 1736.84 498.613 1736.84 498.493 1736.8 497.719 1736.52 497.153 1736.02 496.796 1735.51 496.438 1734.61 496.24 1733.32 496.2L1733.68 494.175ZM1740.59 481.844 1746.55 481.844 1745.09 488.247 1739.19 488.247Z" fill-rule="evenodd"/><text fill="#000000" fill-opacity="0" font-family="Arial,Arial_MSFontService,sans-serif" font-size="42.6523" x="1732.97" y="519.164">ğ‘–</text><path d="M1749.21 429.128 1751.36 429.128C1750.13 434.668 1749 439.732 1747.98 444.318 1746.95 448.905 1745.84 453.969 1744.63 459.509 1744.35 460.7 1744.15 461.639 1744.03 462.324 1743.91 463.009 1743.85 463.629 1743.85 464.185 1743.85 464.94 1744.01 465.486 1744.31 465.823 1744.62 466.161 1745.09 466.33 1745.73 466.33 1746.09 466.33 1746.44 466.26 1746.8 466.121 1747.16 465.982 1747.54 465.764 1747.93 465.466 1748.33 465.168 1748.77 464.786 1749.26 464.319 1749.74 463.853 1750.3 463.292 1750.91 462.636L1752.85 464.602C1751.83 465.635 1750.92 466.513 1750.09 467.238 1749.27 467.963 1748.48 468.554 1747.74 469.01 1746.99 469.467 1746.26 469.8 1745.53 470.008 1744.81 470.217 1744.03 470.321 1743.2 470.321 1742.44 470.321 1741.76 470.182 1741.16 469.904 1740.55 469.626 1740.03 469.244 1739.59 468.757 1739.16 468.271 1738.82 467.69 1738.58 467.015 1738.34 466.34 1738.22 465.595 1738.22 464.781 1738.22 464.046 1738.3 463.138 1738.45 462.056 1738.59 460.973 1738.83 459.747 1739.15 458.377 1740 454.565 1740.85 450.762 1741.69 446.969 1742.54 443.177 1743.23 440.268 1743.76 438.242 1744.24 436.078 1744.48 434.599 1744.48 433.804 1744.48 433.387 1744.42 433.04 1744.31 432.762 1744.2 432.484 1744.01 432.255 1743.72 432.077 1743.43 431.898 1743.04 431.769 1742.54 431.69 1742.05 431.61 1741.4 431.551 1740.61 431.511L1741.02 429.485Z" fill-rule="evenodd"/><text fill="#000000" fill-opacity="0" font-family="Arial,Arial_MSFontService,sans-serif" font-size="41.1929" x="1738.22" y="465.172">ğ‘™</text><path d="M1766.05 477.117 1815.98 477.117 1815.98 482.507 1766.05 482.507Z" fill-rule="evenodd"/><text fill="#000000" fill-opacity="0" font-family="Arial,Arial_MSFontService,sans-serif" font-size="5.39014" x="1766.05" y="481.834">âˆ’</text><path d="M1837.9 464.108C1838.73 464.108 1839.47 464.203 1840.1 464.392 1840.74 464.581 1841.3 464.871 1841.79 465.263 1842.27 465.655 1842.71 466.161 1843.08 466.783 1843.46 467.404 1843.83 468.248 1844.18 469.316 1844.53 470.383 1844.86 471.707 1845.17 473.287 1845.48 474.868 1845.76 476.509 1846 478.211L1846.41 478.211C1849 474.564 1850.97 471.896 1852.3 470.207 1853.64 468.519 1854.77 467.262 1855.69 466.438 1856.61 465.614 1857.49 465.033 1858.34 464.696 1859.19 464.358 1860.32 464.189 1861.73 464.189 1863 464.189 1864.04 464.351 1864.85 464.675L1863.23 472.011 1860.39 472.011C1860.23 470.876 1859.75 470.309 1858.97 470.309 1858.73 470.309 1858.47 470.349 1858.2 470.43 1857.93 470.511 1857.6 470.687 1857.21 470.957 1856.82 471.227 1856.24 471.754 1855.49 472.538 1854.73 473.321 1853.88 474.28 1852.93 475.415 1851.99 476.55 1851.01 477.739 1850.01 478.981L1847.26 482.426C1847.74 485.02 1848.2 487.263 1848.64 489.154 1849.07 491.045 1849.45 492.619 1849.79 493.875 1850.13 495.132 1850.43 496.125 1850.68 496.854 1850.94 497.584 1851.22 498.131 1851.51 498.495 1851.81 498.86 1852.11 499.117 1852.43 499.265 1852.74 499.414 1853.09 499.488 1853.5 499.488 1854.23 499.488 1854.94 499.205 1855.63 498.637 1856.32 498.07 1857.31 496.786 1858.61 494.787L1861.24 496.53C1859.35 499.34 1857.64 501.319 1856.11 502.467 1854.59 503.615 1852.77 504.189 1850.66 504.189 1849.5 504.189 1848.51 503.98 1847.7 503.561 1846.89 503.143 1846.19 502.474 1845.6 501.555 1845 500.637 1844.48 499.205 1844.02 497.259 1843.18 493.801 1842.66 491.153 1842.48 489.316L1842.07 489.316C1839.21 493.342 1837.08 496.233 1835.69 497.989 1834.3 499.745 1833.15 501.042 1832.24 501.879 1831.34 502.717 1830.46 503.305 1829.61 503.642 1828.76 503.98 1827.63 504.149 1826.22 504.149 1824.95 504.149 1823.91 503.987 1823.1 503.663L1824.72 496.327 1827.56 496.327C1827.72 497.462 1828.2 498.029 1828.98 498.029 1829.36 498.029 1829.76 497.928 1830.18 497.725 1830.59 497.523 1831.2 497.036 1831.98 496.266 1832.76 495.496 1833.84 494.287 1835.22 492.639 1836.6 490.991 1838.6 488.519 1841.22 485.223 1840.81 483.088 1840.4 481.035 1839.96 479.063 1839.53 477.09 1839.09 475.253 1838.63 473.551 1838.17 471.849 1837.79 470.734 1837.49 470.207 1837.19 469.68 1836.88 469.316 1836.54 469.113 1836.2 468.91 1835.78 468.809 1835.26 468.809 1834.69 468.809 1834.18 468.937 1833.72 469.194 1833.26 469.451 1832.76 469.897 1832.22 470.532 1831.68 471.166 1830.97 472.159 1830.07 473.51L1827.44 471.768C1829.14 469.201 1830.78 467.283 1832.34 466.013 1833.91 464.743 1835.76 464.108 1837.9 464.108Z" fill-rule="evenodd"/><text fill="#000000" fill-opacity="0" font-family="Arial,Arial_MSFontService,sans-serif" font-size="40.0815" x="1823.1" y="499.179">ğ‘¥</text><path d="M1879.46 493.847 1881.52 493.847 1875.32 523.036C1874.82 525.3 1874.18 527.241 1873.4 528.859 1872.62 530.478 1871.66 531.803 1870.53 532.836 1869.39 533.868 1868.07 534.628 1866.56 535.114 1865.06 535.601 1863.33 535.844 1861.38 535.844 1860.87 535.844 1860.37 535.819 1859.89 535.77 1859.42 535.72 1858.99 535.646 1858.61 535.546L1859.36 532.419C1859.59 532.518 1859.91 532.583 1860.31 532.612 1860.71 532.642 1861.16 532.657 1861.68 532.657 1862.65 532.657 1863.52 532.528 1864.29 532.27 1865.05 532.012 1865.74 531.545 1866.34 530.87 1866.95 530.195 1867.49 529.266 1867.98 528.085 1868.47 526.904 1868.92 525.389 1869.33 523.543 1870.03 520.326 1870.69 517.308 1871.33 514.488 1871.97 511.668 1872.49 509.305 1872.89 507.399 1873.3 505.493 1873.62 503.974 1873.86 502.842 1874.1 501.71 1874.27 500.837 1874.38 500.221 1874.49 499.605 1874.56 499.169 1874.58 498.91 1874.6 498.652 1874.61 498.444 1874.61 498.285 1874.61 497.59 1874.34 497.079 1873.82 496.751 1873.29 496.423 1872.36 496.24 1871.03 496.2L1871.48 494.175ZM1878.36 481.844 1884.35 481.844 1882.89 488.247 1876.9 488.247Z" fill-rule="evenodd"/><text fill="#000000" fill-opacity="0" font-family="Arial,Arial_MSFontService,sans-serif" font-size="54.0005" x="1858.61" y="529.094">ğ‘—</text><path d="M1886.39 429.128 1888.54 429.128C1887.31 434.668 1886.18 439.732 1885.16 444.318 1884.13 448.905 1883.02 453.969 1881.81 459.509 1881.53 460.7 1881.33 461.639 1881.21 462.324 1881.09 463.009 1881.03 463.629 1881.03 464.185 1881.03 464.94 1881.19 465.486 1881.49 465.823 1881.8 466.161 1882.27 466.33 1882.91 466.33 1883.27 466.33 1883.62 466.26 1883.98 466.121 1884.34 465.982 1884.71 465.764 1885.11 465.466 1885.51 465.168 1885.95 464.786 1886.44 464.319 1886.92 463.853 1887.47 463.292 1888.09 462.636L1890.03 464.602C1889.01 465.635 1888.1 466.513 1887.27 467.238 1886.45 467.963 1885.66 468.554 1884.92 469.01 1884.17 469.467 1883.44 469.8 1882.71 470.008 1881.99 470.217 1881.21 470.321 1880.38 470.321 1879.62 470.321 1878.94 470.182 1878.34 469.904 1877.73 469.626 1877.21 469.244 1876.77 468.757 1876.34 468.271 1876 467.69 1875.76 467.015 1875.52 466.34 1875.4 465.595 1875.4 464.781 1875.4 464.046 1875.48 463.138 1875.63 462.056 1875.77 460.973 1876.01 459.747 1876.33 458.377 1877.18 454.565 1878.03 450.762 1878.87 446.969 1879.72 443.177 1880.41 440.268 1880.94 438.242 1881.42 436.078 1881.66 434.599 1881.66 433.804 1881.66 433.387 1881.6 433.04 1881.49 432.762 1881.38 432.484 1881.19 432.255 1880.9 432.077 1880.61 431.898 1880.22 431.769 1879.72 431.69 1879.22 431.61 1878.58 431.551 1877.78 431.511L1878.2 429.485Z" fill-rule="evenodd"/><text fill="#000000" fill-opacity="0" font-family="Arial,Arial_MSFontService,sans-serif" font-size="41.1929" x="1875.4" y="465.172">ğ‘™</text><path d="M1899.83 444.979C1907.72 447.059 1913.77 451.551 1918 458.454 1922.23 465.358 1924.35 473.686 1924.35 483.439 1924.35 493.22 1922.24 501.548 1918.02 508.425 1913.81 515.301 1907.74 519.779 1899.83 521.859L1898.85 518.739C1905.09 516.658 1909.74 512.552 1912.77 506.418 1915.81 500.285 1917.33 492.491 1917.33 483.034 1917.33 473.902 1915.82 466.317 1912.8 460.278 1909.77 454.24 1905.08 450.18 1898.73 448.1Z" fill-rule="evenodd"/><text fill="#000000" fill-opacity="0" font-family="Arial,Arial_MSFontService,sans-serif" font-size="76.8803" x="1898.73" y="512.249">)</text><path d="M3.4375-1.70745e-06 3.43785 703.646-3.43715 703.646-3.4375 1.70745e-06ZM13.7503 699.063 0.000360892 726.563-13.7497 699.063Z" transform="matrix(-1 0 0 1 2353.5 793.5)"/><path d="M2391.22 1335.97C2392.93 1335.97 2394.27 1336.53 2395.26 1337.65 2396.24 1338.78 2396.74 1340.24 2396.74 1342.05 2396.74 1343.54 2396.43 1345.12 2395.8 1346.79L2396.29 1346.96C2398.78 1343.25 2401.25 1340.5 2403.71 1338.71 2406.17 1336.91 2408.65 1336.01 2411.16 1336.01 2413.76 1336.01 2415.73 1336.75 2417.08 1338.22 2418.43 1339.69 2419.11 1341.82 2419.11 1344.6L2419.11 1345.17C2419.11 1345.36 2419.09 1345.56 2419.07 1345.78 2421.39 1342.48 2423.71 1340.03 2426.02 1338.42 2428.33 1336.82 2430.72 1336.01 2433.21 1336.01 2435.7 1336.01 2437.61 1336.73 2438.97 1338.16 2440.32 1339.59 2440.99 1341.61 2440.99 1344.2 2440.99 1345.9 2440.6 1348.32 2439.82 1351.45L2437.18 1362.07C2436.45 1365.02 2436.09 1367.1 2436.09 1368.31 2436.09 1369.39 2436.26 1370.18 2436.61 1370.66 2436.97 1371.15 2437.52 1371.39 2438.28 1371.39 2439.09 1371.39 2439.95 1371.06 2440.87 1370.4 2441.79 1369.74 2443.09 1368.48 2444.76 1366.61L2447.07 1368.88C2444.75 1371.34 2442.72 1373.15 2440.99 1374.31 2439.26 1375.47 2437.29 1376.05 2435.07 1376.05 2433.32 1376.05 2431.91 1375.43 2430.86 1374.17 2429.81 1372.91 2429.28 1371.31 2429.28 1369.37 2429.28 1367.61 2429.73 1365.03 2430.62 1361.63L2432.4 1354.61C2433.05 1352.08 2433.47 1350.2 2433.68 1348.98 2433.88 1347.77 2433.98 1346.78 2433.98 1346.02 2433.98 1344.16 2433.67 1342.81 2433.05 1341.99 2432.43 1341.17 2431.41 1340.75 2430.01 1340.75 2428.87 1340.75 2427.66 1341.18 2426.36 1342.03 2425.06 1342.88 2423.7 1344.21 2422.27 1346 2420.84 1347.8 2419.67 1349.57 2418.76 1351.31 2417.86 1353.05 2417.13 1355.18 2416.59 1357.7L2412.91 1375.41 2405.9 1375.41 2410.56 1354.82C2411.12 1352.3 2411.51 1350.45 2411.71 1349.25 2411.91 1348.04 2412.01 1347.01 2412.01 1346.14 2412.01 1344.2 2411.67 1342.81 2410.98 1341.99 2410.29 1341.17 2409.22 1340.75 2407.76 1340.75 2406.73 1340.75 2405.56 1341.18 2404.25 1342.03 2402.94 1342.88 2401.55 1344.25 2400.06 1346.12 2398.57 1348 2397.41 1349.81 2396.57 1351.53 2395.74 1353.26 2395.03 1355.37 2394.47 1357.86L2390.62 1375.41 2383.6 1375.41 2389.52 1349.71C2390.12 1347.12 2390.41 1345.12 2390.41 1343.71 2390.41 1342.63 2390.24 1341.85 2389.89 1341.36 2389.54 1340.88 2388.98 1340.63 2388.23 1340.63 2387.39 1340.63 2386.5 1340.98 2385.57 1341.67 2384.64 1342.36 2383.36 1343.61 2381.74 1345.42L2379.43 1343.15C2381.81 1340.66 2383.85 1338.84 2385.57 1337.69 2387.29 1336.55 2389.17 1335.97 2391.22 1335.97Z" fill-rule="evenodd"/><text fill="#000000" fill-opacity="0" font-family="Arial,Arial_MSFontService,sans-serif" font-size="40.0815" x="2379.43" y="1371.04">ğ‘š</text><path d="M2462.08 1362.14 2463.54 1362.14 2459.13 1381.97C2458.85 1383.14 2458.66 1384.08 2458.55 1384.77 2458.44 1385.47 2458.38 1386.09 2458.38 1386.65 2458.38 1387.4 2458.54 1387.95 2458.85 1388.29 2459.15 1388.63 2459.62 1388.79 2460.23 1388.79 2460.59 1388.79 2460.95 1388.72 2461.3 1388.59 2461.66 1388.45 2462.04 1388.23 2462.45 1387.93 2462.86 1387.63 2463.3 1387.25 2463.79 1386.78 2464.28 1386.32 2464.82 1385.76 2465.41 1385.1L2467.44 1387.07C2466.41 1388.12 2465.47 1389.01 2464.62 1389.73 2463.78 1390.46 2462.98 1391.05 2462.23 1391.5 2461.47 1391.96 2460.73 1392.29 2460.01 1392.49 2459.28 1392.69 2458.51 1392.79 2457.7 1392.79 2456.94 1392.79 2456.26 1392.65 2455.66 1392.37 2455.05 1392.09 2454.53 1391.71 2454.1 1391.22 2453.66 1390.74 2453.32 1390.15 2453.08 1389.48 2452.84 1388.8 2452.73 1388.06 2452.73 1387.25 2452.73 1386.59 2452.8 1385.78 2452.96 1384.8 2453.12 1383.83 2453.33 1382.77 2453.57 1381.63 2453.82 1380.49 2454.1 1379.29 2454.39 1378.04 2454.69 1376.79 2454.98 1375.55 2455.27 1374.32 2455.56 1373.09 2455.82 1371.9 2456.05 1370.76 2456.27 1369.62 2456.44 1368.58 2456.54 1367.65 2456.58 1367.49 2456.6 1367.33 2456.6 1367.19 2456.6 1367.04 2456.6 1366.9 2456.6 1366.78 2456.56 1366.01 2456.28 1365.44 2455.78 1365.09 2455.27 1364.73 2454.37 1364.53 2453.08 1364.49L2453.44 1362.46ZM2460.35 1350.13 2466.31 1350.13 2464.85 1356.54 2458.95 1356.54Z" fill-rule="evenodd"/><text fill="#000000" fill-opacity="0" font-family="Arial,Arial_MSFontService,sans-serif" font-size="42.6523" x="2452.73" y="1387.45">ğ‘–</text><rect x="16.0002" y="1161" width="177" height="142" stroke="#156082" stroke-width="10.3125" stroke-linejoin="round" stroke-miterlimit="10" fill="none"/><path d="M104.559 1222.15C106.505 1222.15 107.91 1222.65 108.774 1223.67 109.639 1224.68 110.071 1226.04 110.071 1227.74 110.071 1229.04 109.842 1230.52 109.382 1232.2 108.923 1233.87 108.274 1235.64 107.437 1237.51 106.599 1239.37 105.6 1241.28 104.438 1243.24 103.276 1245.2 101.993 1247.1 100.588 1248.95 99.1828 1250.81 97.6833 1252.55 96.0893 1254.18 94.4952 1255.82 92.8403 1257.24 91.1247 1258.46 89.409 1259.67 87.6663 1260.64 85.8966 1261.36 84.1269 1262.07 82.364 1262.43 80.6078 1262.43 79.8243 1262.43 79.1691 1262.23 78.6422 1261.84 78.1154 1261.45 77.6898 1260.9 77.3656 1260.18 77.0414 1259.46 76.8118 1258.62 76.6767 1257.65 76.5416 1256.68 76.474 1255.61 76.474 1254.45 76.474 1252.91 76.5686 1251.26 76.7577 1249.5 76.9468 1247.75 77.19 1245.98 77.4872 1244.19L79.1894 1232.97C79.2974 1232.32 79.3852 1231.7 79.4528 1231.12 79.5203 1230.54 79.5541 1230.12 79.5541 1229.85 79.5541 1229.01 79.419 1228.32 79.1488 1227.78 78.8787 1227.24 78.4193 1226.97 77.7709 1226.97 77.2576 1226.97 76.7037 1227.12 76.1093 1227.43 75.5149 1227.75 74.9137 1228.14 74.3058 1228.63 73.6979 1229.12 73.1103 1229.64 72.5429 1230.19 71.9755 1230.74 71.4486 1231.26 70.9623 1231.75L69.017 1229.48C69.8546 1228.62 70.7462 1227.76 71.6918 1226.91 72.6374 1226.06 73.6371 1225.29 74.6908 1224.6 75.7445 1223.91 76.8523 1223.36 78.0141 1222.94 79.1758 1222.52 80.3647 1222.31 81.5805 1222.31 82.6072 1222.31 83.4447 1222.48 84.0932 1222.81 84.7416 1223.15 85.2482 1223.6 85.6129 1224.15 85.9777 1224.71 86.2276 1225.31 86.3627 1225.98 86.4978 1226.64 86.5653 1227.29 86.5653 1227.94 86.5653 1228.32 86.5518 1228.68 86.5248 1229.04 86.4978 1229.39 86.4573 1229.71 86.4032 1230.01L84.1337 1244.68C83.8905 1246.22 83.6879 1247.73 83.5258 1249.2 83.3637 1250.67 83.2826 1251.97 83.2826 1253.11 83.2826 1254.24 83.3502 1255.16 83.4853 1255.86 83.6203 1256.57 83.877 1256.92 84.2553 1256.92 85.1469 1256.92 86.2681 1256.56 87.619 1255.84 88.97 1255.13 90.3884 1254.14 91.8744 1252.89 93.3604 1251.63 94.8464 1250.14 96.3324 1248.43 97.8184 1246.71 99.1558 1244.85 100.345 1242.86 101.533 1240.86 102.499 1238.75 103.242 1236.53 103.985 1234.32 104.357 1232.09 104.357 1229.85 104.357 1228.87 104.147 1228.12 103.729 1227.6 103.31 1227.07 102.655 1226.81 101.763 1226.81 100.628 1226.81 99.5814 1227.25 98.6222 1228.12 97.6631 1229 96.6702 1230.16 95.6435 1231.59L93.3334 1229.52C93.9818 1228.55 94.7451 1227.62 95.6232 1226.73 96.5013 1225.83 97.4334 1225.05 98.4196 1224.38 99.4057 1223.7 100.426 1223.16 101.479 1222.75 102.533 1222.35 103.56 1222.15 104.559 1222.15Z" fill-rule="evenodd"/><text fill="#000000" fill-opacity="0" font-family="Arial,Arial_MSFontService,sans-serif" font-size="40.2842" x="69.017" y="1257.39">ğ‘£</text><path d="M124.362 1252.05 125.822 1252.05 121.414 1271.88C121.136 1273.06 120.942 1273.99 120.833 1274.68 120.724 1275.38 120.669 1276 120.669 1276.56 120.669 1277.31 120.823 1277.86 121.131 1278.2 121.438 1278.54 121.9 1278.7 122.516 1278.7 122.873 1278.7 123.231 1278.64 123.588 1278.5 123.945 1278.36 124.328 1278.14 124.735 1277.84 125.142 1277.54 125.589 1277.16 126.075 1276.69 126.562 1276.23 127.103 1275.67 127.698 1275.01L129.724 1276.98C128.691 1278.03 127.753 1278.92 126.909 1279.64 126.065 1280.37 125.266 1280.96 124.511 1281.42 123.757 1281.87 123.017 1282.2 122.292 1282.4 121.568 1282.6 120.798 1282.7 119.984 1282.7 119.229 1282.7 118.549 1282.56 117.944 1282.28 117.338 1282 116.817 1281.62 116.38 1281.13 115.943 1280.65 115.606 1280.07 115.367 1279.39 115.129 1278.71 115.01 1277.97 115.01 1277.16 115.01 1276.5 115.089 1275.69 115.248 1274.71 115.407 1273.74 115.611 1272.68 115.859 1271.54 116.107 1270.4 116.38 1269.2 116.678 1267.95 116.976 1266.7 117.269 1265.46 117.556 1264.23 117.844 1263 118.103 1261.81 118.331 1260.67 118.559 1259.53 118.723 1258.49 118.822 1257.56 118.862 1257.4 118.882 1257.24 118.882 1257.1 118.882 1256.95 118.882 1256.81 118.882 1256.69 118.842 1255.92 118.569 1255.35 118.063 1255 117.556 1254.64 116.658 1254.44 115.367 1254.4L115.725 1252.37ZM122.635 1240.04 128.592 1240.04 127.132 1246.45 121.235 1246.45Z" fill-rule="evenodd"/><text fill="#000000" fill-opacity="0" font-family="Arial,Arial_MSFontService,sans-serif" font-size="42.6523" x="115.01" y="1277.36">ğ‘–</text><path d="M131.556 1187.33 133.7 1187.33C132.469 1192.87 131.342 1197.93 130.319 1202.52 129.297 1207.11 128.18 1212.17 126.969 1217.71 126.691 1218.9 126.492 1219.84 126.373 1220.52 126.254 1221.21 126.194 1221.83 126.194 1222.39 126.194 1223.14 126.348 1223.69 126.656 1224.02 126.964 1224.36 127.435 1224.53 128.071 1224.53 128.428 1224.53 128.786 1224.46 129.143 1224.32 129.5 1224.18 129.878 1223.96 130.275 1223.67 130.672 1223.37 131.114 1222.99 131.6 1222.52 132.087 1222.05 132.638 1221.49 133.253 1220.84L135.189 1222.8C134.177 1223.83 133.258 1224.71 132.434 1225.44 131.61 1226.16 130.826 1226.75 130.081 1227.21 129.337 1227.67 128.602 1228 127.877 1228.21 127.152 1228.42 126.373 1228.52 125.539 1228.52 124.784 1228.52 124.104 1228.38 123.499 1228.1 122.893 1227.83 122.372 1227.44 121.935 1226.96 121.498 1226.47 121.161 1225.89 120.922 1225.21 120.684 1224.54 120.565 1223.8 120.565 1222.98 120.565 1222.25 120.639 1221.34 120.788 1220.26 120.937 1219.17 121.17 1217.95 121.488 1216.58 122.342 1212.76 123.191 1208.96 124.035 1205.17 124.879 1201.38 125.569 1198.47 126.105 1196.44 126.581 1194.28 126.82 1192.8 126.82 1192 126.82 1191.59 126.765 1191.24 126.656 1190.96 126.547 1190.68 126.348 1190.46 126.06 1190.28 125.772 1190.1 125.38 1189.97 124.884 1189.89 124.387 1189.81 123.742 1189.75 122.948 1189.71L123.365 1187.69Z" fill-rule="evenodd"/><text fill="#000000" fill-opacity="0" font-family="Arial,Arial_MSFontService,sans-serif" font-size="41.1929" x="120.565" y="1223.37">ğ‘™</text><rect x="16.0002" y="1599" width="177" height="141" stroke="#C04F15" stroke-width="10.3125" stroke-linejoin="round" stroke-miterlimit="10" fill="none"/><path d="M88.4177 1641.33 90.7683 1641.33 83.7976 1669.42 84.284 1669.58C86.8507 1666.18 89.2756 1663.71 91.5586 1662.18 93.8417 1660.66 96.145 1659.89 98.4685 1659.89 100.981 1659.89 102.913 1660.62 104.264 1662.06 105.615 1663.51 106.29 1665.51 106.29 1668.08 106.29 1669.78 105.899 1672.2 105.115 1675.33L102.481 1685.95C101.751 1688.9 101.386 1690.98 101.386 1692.19 101.386 1693.27 101.562 1694.06 101.913 1694.54 102.265 1695.03 102.818 1695.27 103.575 1695.27 104.386 1695.27 105.25 1694.94 106.169 1694.28 107.087 1693.62 108.384 1692.36 110.059 1690.49L112.369 1692.76C109.776 1695.49 107.648 1697.37 105.986 1698.39 104.325 1699.42 102.454 1699.93 100.373 1699.93 98.6171 1699.93 97.2189 1699.31 96.1787 1698.07 95.1385 1696.83 94.6184 1695.22 94.6184 1693.25 94.6184 1691.49 95.0642 1688.91 95.9558 1685.51L97.6985 1678.5C98.3199 1675.98 98.7387 1674.1 98.9549 1672.84 99.171 1671.59 99.2791 1670.61 99.2791 1669.9 99.2791 1667.99 98.9684 1666.63 98.3469 1665.83 97.7255 1665.03 96.7123 1664.64 95.3074 1664.64 94.1996 1664.64 92.9703 1665.09 91.6194 1666.01 90.2685 1666.93 88.85 1668.33 87.364 1670.21 85.878 1672.09 84.696 1673.88 83.8179 1675.6 82.9398 1677.31 82.2441 1679.36 81.7307 1681.74L78.0427 1699.29 71.0315 1699.29 81.447 1652.96C82.0955 1650.07 82.4197 1648.07 82.4197 1646.97 82.4197 1645.83 82.0752 1645.03 81.3863 1644.57 80.6973 1644.11 79.4612 1643.86 77.678 1643.8L78.1643 1641.7Z" fill-rule="evenodd"/><text fill="#000000" fill-opacity="0" font-family="Arial,Arial_MSFontService,sans-serif" font-size="58.6025" x="71.0315" y="1692.61">â„</text><path d="M127.433 1689.59 128.893 1689.59 124.484 1709.43C124.206 1710.6 124.013 1711.53 123.904 1712.23 123.794 1712.92 123.74 1713.55 123.74 1714.11 123.74 1714.86 123.894 1715.41 124.202 1715.74 124.509 1716.08 124.971 1716.25 125.587 1716.25 125.944 1716.25 126.301 1716.18 126.659 1716.04 127.016 1715.9 127.398 1715.68 127.806 1715.39 128.213 1715.09 128.659 1714.71 129.146 1714.24 129.632 1713.77 130.173 1713.21 130.769 1712.56L132.795 1714.52C131.762 1715.57 130.824 1716.46 129.98 1717.19 129.136 1717.91 128.337 1718.5 127.582 1718.96 126.828 1719.42 126.088 1719.74 125.363 1719.94 124.638 1720.14 123.869 1720.24 123.055 1720.24 122.3 1720.24 121.62 1720.1 121.015 1719.82 120.409 1719.55 119.888 1719.16 119.451 1718.68 119.014 1718.19 118.676 1717.61 118.438 1716.93 118.2 1716.26 118.081 1715.52 118.081 1714.7 118.081 1714.05 118.16 1713.23 118.319 1712.26 118.478 1711.29 118.681 1710.23 118.93 1709.09 119.178 1707.94 119.451 1706.75 119.749 1705.5 120.046 1704.25 120.339 1703.01 120.627 1701.77 120.915 1700.54 121.173 1699.36 121.402 1698.21 121.63 1697.07 121.794 1696.04 121.893 1695.1 121.933 1694.94 121.953 1694.79 121.953 1694.64 121.953 1694.49 121.953 1694.36 121.953 1694.24 121.913 1693.46 121.64 1692.9 121.134 1692.54 120.627 1692.18 119.729 1691.98 118.438 1691.95L118.796 1689.92ZM125.706 1677.59 131.663 1677.59 130.203 1683.99 124.306 1683.99Z" fill-rule="evenodd"/><text fill="#000000" fill-opacity="0" font-family="Arial,Arial_MSFontService,sans-serif" font-size="42.6523" x="118.081" y="1714.91">ğ‘–</text><path d="M130.433 1624.87 132.577 1624.87C131.346 1630.41 130.219 1635.48 129.197 1640.06 128.174 1644.65 127.057 1649.71 125.846 1655.25 125.568 1656.45 125.369 1657.38 125.25 1658.07 125.131 1658.75 125.071 1659.37 125.071 1659.93 125.071 1660.68 125.225 1661.23 125.533 1661.57 125.841 1661.91 126.312 1662.07 126.948 1662.07 127.305 1662.07 127.663 1662.01 128.02 1661.87 128.377 1661.73 128.755 1661.51 129.152 1661.21 129.549 1660.91 129.991 1660.53 130.477 1660.06 130.964 1659.6 131.515 1659.04 132.13 1658.38L134.066 1660.35C133.054 1661.38 132.135 1662.26 131.311 1662.98 130.487 1663.71 129.703 1664.3 128.958 1664.76 128.214 1665.21 127.479 1665.54 126.754 1665.75 126.029 1665.96 125.25 1666.07 124.416 1666.07 123.661 1666.07 122.981 1665.93 122.376 1665.65 121.77 1665.37 121.249 1664.99 120.812 1664.5 120.375 1664.02 120.038 1663.43 119.799 1662.76 119.561 1662.08 119.442 1661.34 119.442 1660.53 119.442 1659.79 119.516 1658.88 119.665 1657.8 119.814 1656.72 120.048 1655.49 120.365 1654.12 121.219 1650.31 122.068 1646.51 122.912 1642.71 123.756 1638.92 124.446 1636.01 124.982 1633.99 125.459 1631.82 125.697 1630.34 125.697 1629.55 125.697 1629.13 125.642 1628.78 125.533 1628.51 125.424 1628.23 125.225 1628 124.937 1627.82 124.649 1627.64 124.257 1627.51 123.761 1627.43 123.264 1627.36 122.619 1627.3 121.825 1627.26L122.242 1625.23Z" fill-rule="evenodd"/><text fill="#000000" fill-opacity="0" font-family="Arial,Arial_MSFontService,sans-serif" font-size="41.1929" x="119.442" y="1660.92">ğ‘™</text><path d="M193.519 1229.06 380.122 1230.07 380.085 1236.94 193.482 1235.94ZM375.594 1219.73 403.02 1233.63 375.447 1247.23Z" fill="#156082"/><path d="M193.5 1666.06 2035.1 1666.06 2035.1 1672.94 193.5 1672.94ZM2030.51 1655.75 2058.01 1669.5 2030.51 1683.25Z" fill="#C04F15"/><rect x="2057.5" y="1519.5" width="592" height="300" stroke="#042433" stroke-width="6.875" stroke-miterlimit="8"/><text fill="#FFFFFF" font-family="Aptos,Aptos_MSFontService,sans-serif" font-weight="400" font-size="83" transform="matrix(1 0 0 1 2170.73 1646)">Node MLP</text><path d="M2332.58 1710.35C2327.8 1710.59 2323.66 1712.66 2320.16 1716.55 2316.66 1720.44 2314.91 1725.23 2314.91 1730.93 2314.91 1734.45 2315.84 1737.39 2317.7 1739.77 2319.57 1742.15 2322.07 1743.48 2325.2 1743.78ZM2338.98 1710.26 2331.61 1743.74C2334.9 1743.61 2337.9 1742.62 2340.6 1740.78 2343.3 1738.94 2345.43 1736.46 2346.97 1733.32 2348.51 1730.19 2349.28 1726.79 2349.28 1723.11 2349.28 1720.95 2348.9 1718.94 2348.14 1717.07 2347.38 1715.21 2346.22 1713.66 2344.64 1712.43 2343.05 1711.2 2341.17 1710.48 2338.98 1710.26ZM2337.12 1689.64 2343.52 1689.64 2339.71 1707.02C2345.17 1707.43 2349.32 1709.02 2352.17 1711.8 2355.02 1714.59 2356.45 1718.36 2356.45 1723.11 2356.45 1726.71 2355.81 1729.97 2354.54 1732.9 2353.27 1735.83 2351.41 1738.4 2348.95 1740.6 2346.49 1742.8 2343.86 1744.42 2341.07 1745.46 2338.27 1746.5 2334.86 1747.02 2330.84 1747.02L2327.15 1763.88 2320.74 1763.88 2324.43 1747.02C2319.08 1746.62 2314.97 1745.02 2312.09 1742.22 2309.21 1739.42 2307.78 1735.64 2307.78 1730.85 2307.78 1726.77 2308.84 1722.92 2310.96 1719.28 2313.08 1715.65 2316.02 1712.72 2319.79 1710.49 2323.56 1708.26 2328.08 1707.1 2333.35 1707.02Z" fill="#FFFFFF" fill-rule="evenodd"/><text fill="#000000" fill-opacity="0" font-family="Arial,Arial_MSFontService,sans-serif" font-size="74.2461" x="2307.78" y="1754.6">ğœ™</text><path d="M2375.9 1722.64 2378.05 1722.64 2373.97 1739.47 2374.38 1739.59C2375.36 1738.42 2376.3 1737.41 2377.21 1736.57 2378.13 1735.72 2379.02 1735.03 2379.88 1734.48 2380.74 1733.94 2381.6 1733.53 2382.46 1733.28 2383.31 1733.02 2384.17 1732.89 2385.05 1732.89 2387.19 1732.89 2388.79 1733.45 2389.83 1734.59 2390.87 1735.72 2391.39 1737.31 2391.39 1739.35 2391.39 1739.97 2391.33 1740.72 2391.21 1741.6 2391.09 1742.48 2390.89 1743.52 2390.59 1744.71L2388.56 1752.96C2388.38 1753.74 2388.23 1754.37 2388.12 1754.86 2388 1755.34 2387.91 1755.75 2387.85 1756.09 2387.79 1756.43 2387.75 1756.72 2387.73 1756.96 2387.71 1757.19 2387.7 1757.44 2387.7 1757.7 2387.7 1758.45 2387.84 1759 2388.12 1759.34 2388.39 1759.68 2388.85 1759.84 2389.49 1759.84 2389.84 1759.84 2390.2 1759.78 2390.54 1759.64 2390.89 1759.5 2391.27 1759.28 2391.68 1758.98 2392.08 1758.68 2392.53 1758.3 2393.02 1757.83 2393.5 1757.37 2394.05 1756.81 2394.67 1756.15 2394.99 1756.49 2395.32 1756.82 2395.67 1757.15 2396.01 1757.48 2396.36 1757.8 2396.69 1758.12 2395.68 1759.15 2394.76 1760.03 2393.92 1760.75 2393.09 1761.48 2392.3 1762.07 2391.54 1762.53 2390.79 1762.98 2390.04 1763.31 2389.31 1763.52 2388.57 1763.73 2387.79 1763.84 2386.95 1763.84 2386.24 1763.84 2385.58 1763.7 2384.97 1763.42 2384.37 1763.14 2383.85 1762.76 2383.41 1762.27 2382.97 1761.79 2382.63 1761.21 2382.38 1760.54 2382.13 1759.88 2382.01 1759.15 2382.01 1758.36 2382.01 1757.56 2382.1 1756.65 2382.28 1755.61 2382.46 1754.58 2382.68 1753.5 2382.93 1752.37 2383.19 1751.24 2383.47 1750.09 2383.78 1748.94 2384.09 1747.79 2384.37 1746.7 2384.63 1745.68 2384.89 1744.66 2385.11 1743.73 2385.29 1742.9 2385.46 1742.06 2385.55 1741.4 2385.55 1740.9 2385.55 1740.35 2385.51 1739.82 2385.44 1739.34 2385.36 1738.85 2385.2 1738.42 2384.97 1738.06 2384.75 1737.69 2384.44 1737.4 2384.06 1737.19 2383.69 1736.98 2383.2 1736.88 2382.61 1736.88 2381.65 1736.88 2380.62 1737.25 2379.51 1737.98 2378.4 1738.72 2377.34 1739.67 2376.34 1740.84 2375.33 1742.01 2374.44 1743.32 2373.66 1744.77 2372.87 1746.22 2372.33 1747.67 2372.03 1749.12 2371.52 1751.48 2371.02 1753.85 2370.54 1756.21 2370.07 1758.57 2369.58 1760.94 2369.08 1763.3L2363.36 1763.3 2370.42 1731.31C2370.64 1730.3 2370.81 1729.47 2370.91 1728.84 2371.02 1728.2 2371.08 1727.66 2371.08 1727.2 2371.08 1726.82 2371.02 1726.49 2370.9 1726.22 2370.78 1725.94 2370.58 1725.72 2370.29 1725.55 2370 1725.38 2369.61 1725.25 2369.11 1725.17 2368.62 1725.1 2368 1725.05 2367.27 1725.03L2367.71 1723Z" fill="#FFFFFF" fill-rule="evenodd"/><text fill="#000000" fill-opacity="0" font-family="Arial,Arial_MSFontService,sans-serif" font-size="41.1929" x="2363.36" y="1758.69">â„</text><rect x="402.5" y="1081.5" width="592" height="300" stroke="#042433" stroke-width="6.875" stroke-miterlimit="8" fill="#0D0D0D"/><text fill="#FFFFFF" font-family="Aptos,Aptos_MSFontService,sans-serif" font-weight="400" font-size="83" transform="matrix(1 0 0 1 471.657 1208)">Velocity MLP</text><path d="M680.895 1271.67C676.113 1271.92 671.973 1273.98 668.474 1277.87 664.975 1281.77 663.225 1286.56 663.225 1292.26 663.225 1295.77 664.158 1298.72 666.022 1301.1 667.886 1303.47 670.385 1304.81 673.519 1305.11ZM687.299 1271.59 679.923 1305.07C683.219 1304.93 686.218 1303.95 688.92 1302.11 691.622 1300.27 693.742 1297.79 695.283 1294.65 696.823 1291.52 697.593 1288.11 697.593 1284.44 697.593 1282.28 697.214 1280.27 696.458 1278.4 695.701 1276.54 694.533 1274.99 692.952 1273.76 691.372 1272.53 689.487 1271.81 687.299 1271.59ZM685.434 1250.96 691.838 1250.96 688.028 1268.35C693.486 1268.76 697.64 1270.35 700.49 1273.13 703.341 1275.92 704.766 1279.68 704.766 1284.44 704.766 1288.03 704.131 1291.3 702.861 1294.23 701.591 1297.16 699.727 1299.73 697.268 1301.93 694.81 1304.13 692.182 1305.75 689.386 1306.79 686.589 1307.83 683.178 1308.35 679.153 1308.35L675.465 1325.21 669.061 1325.21 672.749 1308.35C667.4 1307.95 663.286 1306.35 660.409 1303.55 657.531 1300.75 656.093 1296.96 656.093 1292.18 656.093 1288.1 657.153 1284.24 659.274 1280.61 661.395 1276.98 664.34 1274.04 668.109 1271.82 671.878 1269.59 676.397 1268.43 681.665 1268.35Z" fill="#FFFFFF" fill-rule="evenodd"/><text fill="#000000" fill-opacity="0" font-family="Arial,Arial_MSFontService,sans-serif" font-size="74.2461" x="656.093" y="1315.93">ğœ™</text><path d="M716.343 1294.22C717.197 1294.22 717.887 1294.39 718.413 1294.72 718.939 1295.06 719.356 1295.5 719.664 1296.05 719.972 1296.59 720.18 1297.2 720.29 1297.85 720.399 1298.51 720.453 1299.15 720.453 1299.79 720.453 1300.16 720.414 1300.67 720.334 1301.31L718.458 1312.09C718.279 1313.12 718.13 1314.13 718.011 1315.13 717.892 1316.12 717.832 1316.99 717.832 1317.75 717.832 1318.5 717.882 1319.12 717.981 1319.59 718.081 1320.07 718.18 1320.31 718.279 1320.31 718.915 1320.31 719.729 1320.06 720.721 1319.55 721.714 1319.04 722.762 1318.35 723.864 1317.46 724.966 1316.58 726.068 1315.53 727.17 1314.32 728.272 1313.11 729.26 1311.8 730.134 1310.38 731.007 1308.96 731.717 1307.47 732.263 1305.91 732.809 1304.35 733.082 1302.78 733.082 1301.19 733.082 1300.25 732.909 1299.58 732.561 1299.16 732.214 1298.74 731.742 1298.54 731.146 1298.54 730.511 1298.54 729.836 1298.84 729.121 1299.44 728.406 1300.05 727.661 1300.84 726.887 1301.81L725.13 1300.05C725.606 1299.28 726.172 1298.54 726.827 1297.84 727.483 1297.13 728.178 1296.51 728.912 1295.97 729.647 1295.44 730.407 1295.01 731.191 1294.69 731.975 1294.38 732.745 1294.22 733.499 1294.22 735.068 1294.22 736.2 1294.71 736.895 1295.69 737.59 1296.67 737.937 1297.99 737.937 1299.64 737.937 1300.59 737.764 1301.68 737.416 1302.91 737.069 1304.15 736.577 1305.45 735.942 1306.82 735.306 1308.19 734.552 1309.59 733.678 1311.03 732.804 1312.47 731.836 1313.87 730.774 1315.23 729.712 1316.59 728.58 1317.87 727.378 1319.07 726.177 1320.27 724.926 1321.32 723.626 1322.22 722.325 1323.11 721.004 1323.82 719.664 1324.34 718.324 1324.87 716.988 1325.13 715.658 1325.13 714.943 1325.13 714.347 1324.99 713.871 1324.7 713.394 1324.41 713.027 1324.01 712.769 1323.48 712.511 1322.95 712.332 1322.33 712.233 1321.62 712.133 1320.9 712.084 1320.12 712.084 1319.27 712.084 1318.13 712.153 1316.92 712.292 1315.63 712.431 1314.34 712.61 1313.04 712.828 1311.73 713.881 1305.36 714.407 1301.65 714.407 1300.62 714.447 1299.89 714.362 1299.38 714.154 1299.12 713.945 1298.85 713.652 1298.71 713.275 1298.71 712.878 1298.71 712.456 1298.82 712.009 1299.04 711.563 1299.26 711.111 1299.54 710.654 1299.88 710.197 1300.21 709.756 1300.58 709.329 1300.96 708.902 1301.35 708.5 1301.71 708.122 1302.05L706.484 1300.05C707.139 1299.36 707.839 1298.66 708.584 1297.97 709.329 1297.28 710.118 1296.64 710.952 1296.08 711.786 1295.51 712.66 1295.06 713.573 1294.72 714.486 1294.39 715.41 1294.22 716.343 1294.22Z" fill="#FFFFFF" fill-rule="evenodd"/><text fill="#000000" fill-opacity="0" font-family="Arial,Arial_MSFontService,sans-serif" font-size="30.917" x="706.484" y="1321.27">ğ‘£</text><path d="M994.5 1228.06 3297.77 1228.06 3297.77 1234.94 994.5 1234.94ZM3293.18 1217.75 3320.68 1231.5 3293.18 1245.25Z"/><path d="M3320.5 1231 3441.5 1109.5 3562.5 1231 3441.5 1352.5Z" stroke="#042433" stroke-width="6.875" stroke-miterlimit="8" fill="none" fill-rule="evenodd"/><path d="M3441.5 1109.5 3441.5 1352.12" stroke="#000000" stroke-width="6.875" stroke-miterlimit="8" fill="none" fill-rule="evenodd"/><path d="M3320.5 1231.5 3563.12 1231.5" stroke="#000000" stroke-width="6.875" stroke-miterlimit="8" fill="none" fill-rule="evenodd"/><path d="M3187.5 791.062 3445.56 791.062 3445.56 1086.69 3438.69 1086.69 3438.69 794.5 3442.12 797.937 3187.5 797.937ZM3455.87 1082.11 3442.12 1109.61 3428.37 1082.11Z"/><rect x="3738" y="1599" width="209" height="141" stroke="#000000" stroke-width="10.3125" stroke-linejoin="round" stroke-miterlimit="10" fill="none"/><path d="M3791.75 1641.33 3794.1 1641.33 3787.13 1669.42 3787.62 1669.58C3790.18 1666.18 3792.61 1663.71 3794.89 1662.18 3797.18 1660.66 3799.48 1659.89 3801.8 1659.89 3804.32 1659.89 3806.25 1660.62 3807.6 1662.06 3808.95 1663.51 3809.62 1665.51 3809.62 1668.08 3809.62 1669.78 3809.23 1672.2 3808.45 1675.33L3805.81 1685.95C3805.09 1688.9 3804.72 1690.98 3804.72 1692.19 3804.72 1693.27 3804.9 1694.06 3805.25 1694.54 3805.6 1695.03 3806.15 1695.27 3806.91 1695.27 3807.72 1695.27 3808.58 1694.94 3809.5 1694.28 3810.42 1693.62 3811.72 1692.36 3813.39 1690.49L3815.7 1692.76C3813.11 1695.49 3810.98 1697.37 3809.32 1698.39 3807.66 1699.42 3805.79 1699.93 3803.71 1699.93 3801.95 1699.93 3800.55 1699.31 3799.51 1698.07 3798.47 1696.83 3797.95 1695.22 3797.95 1693.25 3797.95 1691.49 3798.4 1688.91 3799.29 1685.51L3801.03 1678.5C3801.65 1675.98 3802.07 1674.1 3802.29 1672.84 3802.5 1671.59 3802.61 1670.61 3802.61 1669.9 3802.61 1667.99 3802.3 1666.63 3801.68 1665.83 3801.06 1665.03 3800.05 1664.64 3798.64 1664.64 3797.53 1664.64 3796.3 1665.09 3794.95 1666.01 3793.6 1666.93 3792.18 1668.33 3790.7 1670.21 3789.21 1672.09 3788.03 1673.88 3787.15 1675.6 3786.27 1677.31 3785.58 1679.36 3785.06 1681.74L3781.38 1699.29 3774.37 1699.29 3784.78 1652.96C3785.43 1650.07 3785.75 1648.07 3785.75 1646.97 3785.75 1645.83 3785.41 1645.03 3784.72 1644.57 3784.03 1644.11 3782.8 1643.86 3781.01 1643.8L3781.5 1641.7Z" fill-rule="evenodd"/><text fill="#000000" fill-opacity="0" font-family="Arial,Arial_MSFontService,sans-serif" font-size="58.6025" x="3774.37" y="1692.61">â„</text><path d="M3830.77 1689.59 3832.23 1689.59 3827.82 1709.43C3827.54 1710.6 3827.35 1711.53 3827.24 1712.23 3827.13 1712.92 3827.07 1713.55 3827.07 1714.11 3827.07 1714.86 3827.23 1715.41 3827.54 1715.74 3827.84 1716.08 3828.31 1716.25 3828.92 1716.25 3829.28 1716.25 3829.64 1716.18 3829.99 1716.04 3830.35 1715.9 3830.73 1715.68 3831.14 1715.39 3831.55 1715.09 3831.99 1714.71 3832.48 1714.24 3832.97 1713.77 3833.51 1713.21 3834.1 1712.56L3836.13 1714.52C3835.1 1715.57 3834.16 1716.46 3833.31 1717.19 3832.47 1717.91 3831.67 1718.5 3830.92 1718.96 3830.16 1719.42 3829.42 1719.74 3828.7 1719.94 3827.97 1720.14 3827.2 1720.24 3826.39 1720.24 3825.63 1720.24 3824.95 1720.1 3824.35 1719.82 3823.74 1719.55 3823.22 1719.16 3822.78 1718.68 3822.35 1718.19 3822.01 1717.61 3821.77 1716.93 3821.53 1716.26 3821.41 1715.52 3821.41 1714.7 3821.41 1714.05 3821.49 1713.23 3821.65 1712.26 3821.81 1711.29 3822.02 1710.23 3822.26 1709.09 3822.51 1707.94 3822.78 1706.75 3823.08 1705.5 3823.38 1704.25 3823.67 1703.01 3823.96 1701.77 3824.25 1700.54 3824.51 1699.36 3824.74 1698.21 3824.96 1697.07 3825.13 1696.04 3825.23 1695.1 3825.27 1694.94 3825.29 1694.79 3825.29 1694.64 3825.29 1694.49 3825.29 1694.36 3825.29 1694.24 3825.25 1693.46 3824.97 1692.9 3824.47 1692.54 3823.96 1692.18 3823.06 1691.98 3821.77 1691.95L3822.13 1689.92ZM3829.04 1677.59 3835 1677.59 3833.54 1683.99 3827.64 1683.99Z" fill-rule="evenodd"/><text fill="#000000" fill-opacity="0" font-family="Arial,Arial_MSFontService,sans-serif" font-size="42.6523" x="3821.41" y="1714.91">ğ‘–</text><path d="M3833.77 1624.87 3835.91 1624.87C3834.68 1630.41 3833.55 1635.48 3832.53 1640.06 3831.51 1644.65 3830.39 1649.71 3829.18 1655.25 3828.9 1656.45 3828.7 1657.38 3828.58 1658.07 3828.46 1658.75 3828.41 1659.37 3828.41 1659.93 3828.41 1660.68 3828.56 1661.23 3828.87 1661.57 3829.17 1661.91 3829.65 1662.07 3830.28 1662.07 3830.64 1662.07 3831 1662.01 3831.35 1661.87 3831.71 1661.73 3832.09 1661.51 3832.49 1661.21 3832.88 1660.91 3833.32 1660.53 3833.81 1660.06 3834.3 1659.6 3834.85 1659.04 3835.46 1658.38L3837.4 1660.35C3836.39 1661.38 3835.47 1662.26 3834.65 1662.98 3833.82 1663.71 3833.04 1664.3 3832.29 1664.76 3831.55 1665.21 3830.81 1665.54 3830.09 1665.75 3829.36 1665.96 3828.58 1666.07 3827.75 1666.07 3827 1666.07 3826.32 1665.93 3825.71 1665.65 3825.1 1665.37 3824.58 1664.99 3824.15 1664.5 3823.71 1664.02 3823.37 1663.43 3823.13 1662.76 3822.9 1662.08 3822.78 1661.34 3822.78 1660.53 3822.78 1659.79 3822.85 1658.88 3823 1657.8 3823.15 1656.72 3823.38 1655.49 3823.7 1654.12 3824.55 1650.31 3825.4 1646.51 3826.25 1642.71 3827.09 1638.92 3827.78 1636.01 3828.32 1633.99 3828.79 1631.82 3829.03 1630.34 3829.03 1629.55 3829.03 1629.13 3828.98 1628.78 3828.87 1628.51 3828.76 1628.23 3828.56 1628 3828.27 1627.82 3827.98 1627.64 3827.59 1627.51 3827.09 1627.43 3826.6 1627.36 3825.95 1627.3 3825.16 1627.26L3825.58 1625.23Z" fill-rule="evenodd"/><text fill="#000000" fill-opacity="0" font-family="Arial,Arial_MSFontService,sans-serif" font-size="41.1929" x="3822.78" y="1660.92">ğ‘™</text><path d="M3860.93 1630.15 3865.75 1630.15 3865.75 1645.81 3880.5 1645.81 3880.5 1650.37 3865.75 1650.37 3865.75 1666.04 3860.93 1666.04 3860.93 1650.37 3846.19 1650.37 3846.19 1645.81 3860.93 1645.81Z" fill-rule="evenodd"/><text fill="#000000" fill-opacity="0" font-family="Arial,Arial_MSFontService,sans-serif" font-size="35.8911" x="3846.19" y="1661.55">+</text><path d="M3904.8 1627.17 3906.62 1627.17C3906.58 1628.26 3906.55 1629.24 3906.53 1630.1 3906.51 1630.96 3906.49 1631.8 3906.48 1632.62 3906.47 1633.43 3906.47 1634.24 3906.47 1635.03L3906.47 1657.67C3906.47 1658.28 3906.49 1658.81 3906.53 1659.26 3906.57 1659.71 3906.63 1660.08 3906.72 1660.39 3906.81 1660.7 3906.93 1660.96 3907.08 1661.18 3907.23 1661.4 3907.4 1661.59 3907.6 1661.75 3907.84 1661.99 3908.15 1662.17 3908.55 1662.3 3908.95 1662.43 3909.45 1662.54 3910.07 1662.63 3910.69 1662.72 3911.43 1662.78 3912.29 1662.83 3913.15 1662.88 3914.19 1662.92 3915.4 1662.94L3915.4 1665.53 3891.78 1665.53 3891.78 1662.94C3892.95 1662.9 3893.95 1662.85 3894.76 1662.8 3895.57 1662.75 3896.27 1662.69 3896.85 1662.6 3897.42 1662.51 3897.88 1662.41 3898.23 1662.3 3898.58 1662.19 3898.88 1662.05 3899.14 1661.9 3899.42 1661.72 3899.66 1661.52 3899.85 1661.32 3900.05 1661.11 3900.21 1660.84 3900.33 1660.53 3900.45 1660.21 3900.54 1659.82 3900.61 1659.36 3900.68 1658.91 3900.72 1658.34 3900.72 1657.67L3900.72 1636.31C3900.72 1635.54 3900.57 1634.99 3900.27 1634.67 3899.97 1634.35 3899.55 1634.2 3898.99 1634.2 3898.37 1634.2 3897.46 1634.51 3896.25 1635.15 3895.04 1635.78 3893.47 1636.73 3891.54 1637.98 3891.29 1637.52 3891.05 1637.07 3890.83 1636.61 3890.61 1636.15 3890.38 1635.69 3890.14 1635.21 3892.61 1633.86 3895.04 1632.51 3897.46 1631.17 3899.87 1629.83 3902.32 1628.5 3904.8 1627.17Z" fill-rule="evenodd"/><text fill="#000000" fill-opacity="0" font-family="Arial,Arial_MSFontService,sans-serif" font-size="38.3633" x="3890.14" y="1660.73">1</text><path d="M2649.5 1666.06 3715.59 1666.06 3715.59 1672.94 2649.5 1672.94ZM3711 1655.75 3738.5 1669.5 3711 1683.25Z"/><rect x="3738" y="1161" width="209" height="142" stroke="#000000" stroke-width="10.3125" stroke-linejoin="round" stroke-miterlimit="10" fill="none"/><path d="M3809.02 1222.15C3810.96 1222.15 3812.37 1222.65 3813.23 1223.67 3814.1 1224.68 3814.53 1226.04 3814.53 1227.74 3814.53 1229.04 3814.3 1230.52 3813.84 1232.2 3813.38 1233.87 3812.73 1235.64 3811.89 1237.51 3811.06 1239.37 3810.06 1241.28 3808.89 1243.24 3807.73 1245.2 3806.45 1247.1 3805.04 1248.95 3803.64 1250.81 3802.14 1252.55 3800.55 1254.18 3798.95 1255.82 3797.3 1257.24 3795.58 1258.46 3793.87 1259.67 3792.12 1260.64 3790.35 1261.36 3788.58 1262.07 3786.82 1262.43 3785.06 1262.43 3784.28 1262.43 3783.63 1262.23 3783.1 1261.84 3782.57 1261.45 3782.15 1260.9 3781.82 1260.18 3781.5 1259.46 3781.27 1258.62 3781.13 1257.65 3781 1256.68 3780.93 1255.61 3780.93 1254.45 3780.93 1252.91 3781.03 1251.26 3781.21 1249.5 3781.4 1247.75 3781.65 1245.98 3781.94 1244.19L3783.65 1232.97C3783.75 1232.32 3783.84 1231.7 3783.91 1231.12 3783.98 1230.54 3784.01 1230.12 3784.01 1229.85 3784.01 1229.01 3783.88 1228.32 3783.61 1227.78 3783.34 1227.24 3782.88 1226.97 3782.23 1226.97 3781.71 1226.97 3781.16 1227.12 3780.57 1227.43 3779.97 1227.75 3779.37 1228.14 3778.76 1228.63 3778.15 1229.12 3777.57 1229.64 3777 1230.19 3776.43 1230.74 3775.91 1231.26 3775.42 1231.75L3773.47 1229.48C3774.31 1228.62 3775.2 1227.76 3776.15 1226.91 3777.09 1226.06 3778.09 1225.29 3779.15 1224.6 3780.2 1223.91 3781.31 1223.36 3782.47 1222.94 3783.63 1222.52 3784.82 1222.31 3786.04 1222.31 3787.06 1222.31 3787.9 1222.48 3788.55 1222.81 3789.2 1223.15 3789.71 1223.6 3790.07 1224.15 3790.43 1224.71 3790.68 1225.31 3790.82 1225.98 3790.95 1226.64 3791.02 1227.29 3791.02 1227.94 3791.02 1228.32 3791.01 1228.68 3790.98 1229.04 3790.95 1229.39 3790.91 1229.71 3790.86 1230.01L3788.59 1244.68C3788.35 1246.22 3788.14 1247.73 3787.98 1249.2 3787.82 1250.67 3787.74 1251.97 3787.74 1253.11 3787.74 1254.24 3787.81 1255.16 3787.94 1255.86 3788.08 1256.57 3788.33 1256.92 3788.71 1256.92 3789.6 1256.92 3790.73 1256.56 3792.08 1255.84 3793.43 1255.13 3794.85 1254.14 3796.33 1252.89 3797.82 1251.63 3799.3 1250.14 3800.79 1248.43 3802.28 1246.71 3803.61 1244.85 3804.8 1242.86 3805.99 1240.86 3806.96 1238.75 3807.7 1236.53 3808.44 1234.32 3808.81 1232.09 3808.81 1229.85 3808.81 1228.87 3808.6 1228.12 3808.19 1227.6 3807.77 1227.07 3807.11 1226.81 3806.22 1226.81 3805.09 1226.81 3804.04 1227.25 3803.08 1228.12 3802.12 1229 3801.13 1230.16 3800.1 1231.59L3797.79 1229.52C3798.44 1228.55 3799.2 1227.62 3800.08 1226.73 3800.96 1225.83 3801.89 1225.05 3802.88 1224.38 3803.86 1223.7 3804.88 1223.16 3805.94 1222.75 3806.99 1222.35 3808.02 1222.15 3809.02 1222.15Z" fill-rule="evenodd"/><text fill="#000000" fill-opacity="0" font-family="Arial,Arial_MSFontService,sans-serif" font-size="40.2842" x="3773.47" y="1257.39">ğ‘£</text><path d="M3828.82 1252.05 3830.28 1252.05 3825.87 1271.88C3825.59 1273.06 3825.4 1273.99 3825.29 1274.68 3825.18 1275.38 3825.13 1276 3825.13 1276.56 3825.13 1277.31 3825.28 1277.86 3825.59 1278.2 3825.9 1278.54 3826.36 1278.7 3826.97 1278.7 3827.33 1278.7 3827.69 1278.64 3828.04 1278.5 3828.4 1278.36 3828.78 1278.14 3829.19 1277.84 3829.6 1277.54 3830.05 1277.16 3830.53 1276.69 3831.02 1276.23 3831.56 1275.67 3832.16 1275.01L3834.18 1276.98C3833.15 1278.03 3832.21 1278.92 3831.37 1279.64 3830.52 1280.37 3829.72 1280.96 3828.97 1281.42 3828.21 1281.87 3827.47 1282.2 3826.75 1282.4 3826.02 1282.6 3825.26 1282.7 3824.44 1282.7 3823.69 1282.7 3823.01 1282.56 3822.4 1282.28 3821.79 1282 3821.27 1281.62 3820.84 1281.13 3820.4 1280.65 3820.06 1280.07 3819.82 1279.39 3819.59 1278.71 3819.47 1277.97 3819.47 1277.16 3819.47 1276.5 3819.55 1275.69 3819.71 1274.71 3819.86 1273.74 3820.07 1272.68 3820.32 1271.54 3820.56 1270.4 3820.84 1269.2 3821.13 1267.95 3821.43 1266.7 3821.73 1265.46 3822.01 1264.23 3822.3 1263 3822.56 1261.81 3822.79 1260.67 3823.02 1259.53 3823.18 1258.49 3823.28 1257.56 3823.32 1257.4 3823.34 1257.24 3823.34 1257.1 3823.34 1256.95 3823.34 1256.81 3823.34 1256.69 3823.3 1255.92 3823.03 1255.35 3822.52 1255 3822.01 1254.64 3821.11 1254.44 3819.82 1254.4L3820.18 1252.37ZM3827.09 1240.04 3833.05 1240.04 3831.59 1246.45 3825.69 1246.45Z" fill-rule="evenodd"/><text fill="#000000" fill-opacity="0" font-family="Arial,Arial_MSFontService,sans-serif" font-size="42.6523" x="3819.47" y="1277.36">ğ‘–</text><path d="M3836.01 1187.33 3838.16 1187.33C3836.93 1192.87 3835.8 1197.93 3834.78 1202.52 3833.75 1207.11 3832.64 1212.17 3831.43 1217.71 3831.15 1218.9 3830.95 1219.84 3830.83 1220.52 3830.71 1221.21 3830.65 1221.83 3830.65 1222.39 3830.65 1223.14 3830.8 1223.69 3831.11 1224.02 3831.42 1224.36 3831.89 1224.53 3832.53 1224.53 3832.89 1224.53 3833.24 1224.46 3833.6 1224.32 3833.96 1224.18 3834.33 1223.96 3834.73 1223.67 3835.13 1223.37 3835.57 1222.99 3836.06 1222.52 3836.54 1222.05 3837.09 1221.49 3837.71 1220.84L3839.65 1222.8C3838.63 1223.83 3837.72 1224.71 3836.89 1225.44 3836.07 1226.16 3835.28 1226.75 3834.54 1227.21 3833.79 1227.67 3833.06 1228 3832.33 1228.21 3831.61 1228.42 3830.83 1228.52 3830 1228.52 3829.24 1228.52 3828.56 1228.38 3827.96 1228.1 3827.35 1227.83 3826.83 1227.44 3826.39 1226.96 3825.96 1226.47 3825.62 1225.89 3825.38 1225.21 3825.14 1224.54 3825.02 1223.8 3825.02 1222.98 3825.02 1222.25 3825.1 1221.34 3825.25 1220.26 3825.39 1219.17 3825.63 1217.95 3825.95 1216.58 3826.8 1212.76 3827.65 1208.96 3828.49 1205.17 3829.34 1201.38 3830.03 1198.47 3830.56 1196.44 3831.04 1194.28 3831.28 1192.8 3831.28 1192 3831.28 1191.59 3831.22 1191.24 3831.11 1190.96 3831 1190.68 3830.8 1190.46 3830.52 1190.28 3830.23 1190.1 3829.84 1189.97 3829.34 1189.89 3828.84 1189.81 3828.2 1189.75 3827.4 1189.71L3827.82 1187.69Z" fill-rule="evenodd"/><text fill="#000000" fill-opacity="0" font-family="Arial,Arial_MSFontService,sans-serif" font-size="41.1929" x="3825.02" y="1223.37">ğ‘™</text><path d="M3863.17 1192.6 3868 1192.6 3868 1208.27 3882.74 1208.27 3882.74 1212.82 3868 1212.82 3868 1228.49 3863.17 1228.49 3863.17 1212.82 3848.43 1212.82 3848.43 1208.27 3863.17 1208.27Z" fill-rule="evenodd"/><text fill="#000000" fill-opacity="0" font-family="Arial,Arial_MSFontService,sans-serif" font-size="35.8911" x="3848.43" y="1224">+</text><path d="M3907.04 1189.62 3908.86 1189.62C3908.82 1190.71 3908.79 1191.69 3908.77 1192.56 3908.75 1193.42 3908.74 1194.26 3908.73 1195.07 3908.72 1195.89 3908.71 1196.69 3908.71 1197.48L3908.71 1220.12C3908.71 1220.74 3908.73 1221.27 3908.77 1221.72 3908.81 1222.16 3908.88 1222.54 3908.97 1222.85 3909.05 1223.15 3909.17 1223.42 3909.32 1223.64 3909.47 1223.85 3909.65 1224.04 3909.84 1224.2 3910.08 1224.44 3910.4 1224.62 3910.8 1224.75 3911.19 1224.88 3911.7 1224.99 3912.32 1225.08 3912.93 1225.17 3913.67 1225.24 3914.54 1225.29 3915.4 1225.34 3916.44 1225.37 3917.65 1225.39L3917.65 1227.98 3894.03 1227.98 3894.03 1225.39C3895.2 1225.35 3896.19 1225.31 3897.01 1225.26 3897.82 1225.21 3898.52 1225.14 3899.09 1225.05 3899.67 1224.96 3900.13 1224.86 3900.48 1224.75 3900.82 1224.64 3901.13 1224.51 3901.39 1224.35 3901.66 1224.17 3901.9 1223.98 3902.1 1223.77 3902.3 1223.56 3902.46 1223.3 3902.58 1222.98 3902.7 1222.66 3902.79 1222.28 3902.86 1221.82 3902.93 1221.36 3902.96 1220.8 3902.96 1220.12L3902.96 1198.77C3902.96 1197.99 3902.81 1197.45 3902.52 1197.13 3902.22 1196.81 3901.79 1196.65 3901.24 1196.65 3900.62 1196.65 3899.71 1196.97 3898.5 1197.6 3897.28 1198.24 3895.72 1199.18 3893.79 1200.43 3893.53 1199.98 3893.29 1199.52 3893.07 1199.06 3892.86 1198.61 3892.63 1198.14 3892.39 1197.66 3894.85 1196.31 3897.29 1194.97 3899.7 1193.63 3902.11 1192.29 3904.56 1190.95 3907.04 1189.62Z" fill-rule="evenodd"/><text fill="#000000" fill-opacity="0" font-family="Arial,Arial_MSFontService,sans-serif" font-size="38.3633" x="3892.39" y="1223.19">1</text><path d="M3562.52 1228.06 3714.8 1229.04 3714.76 1235.92 3562.48 1234.94ZM3710.29 1218.7 3737.7 1232.63 3710.11 1246.2Z"/><path d="M1812.06 1669.59 1812.06 967.417 1818.94 967.417 1818.94 1669.59ZM1801.75 972 1815.5 944.5 1829.25 972Z" fill="#C04F15"/><path d="M695.063 1670.17 695.063 1404.42 701.938 1404.42 701.938 1670.17ZM684.75 1409 698.5 1381.5 712.25 1409Z" fill="#C04F15"/><rect x="4170" y="724" width="209" height="141" stroke="#000000" stroke-width="10.3125" stroke-linejoin="round" stroke-miterlimit="10" fill="none"/><path d="M4218.96 784.764C4219.8 784.764 4220.54 784.858 4221.17 785.047 4221.81 785.237 4222.37 785.527 4222.85 785.919 4223.34 786.31 4223.77 786.817 4224.15 787.438 4224.53 788.06 4224.89 788.904 4225.25 789.971 4225.6 791.039 4225.93 792.363 4226.24 793.943 4226.55 795.524 4226.83 797.165 4227.07 798.867L4227.47 798.867C4230.07 795.22 4232.03 792.552 4233.37 790.863 4234.71 789.174 4235.84 787.918 4236.76 787.094 4237.67 786.27 4238.56 785.689 4239.41 785.351 4240.26 785.014 4241.39 784.845 4242.79 784.845 4244.06 784.845 4245.1 785.007 4245.91 785.331L4244.29 792.667 4241.46 792.667C4241.29 791.532 4240.82 790.964 4240.04 790.964 4239.79 790.964 4239.54 791.005 4239.27 791.086 4239 791.167 4238.67 791.343 4238.27 791.613 4237.88 791.883 4237.31 792.41 4236.55 793.193 4235.8 793.977 4234.95 794.936 4234 796.071 4233.05 797.206 4232.08 798.394 4231.08 799.637L4228.33 803.082C4228.81 805.676 4229.27 807.918 4229.7 809.81 4230.14 811.701 4230.52 813.275 4230.86 814.531 4231.2 815.787 4231.49 816.78 4231.75 817.51 4232.01 818.239 4232.28 818.786 4232.58 819.151 4232.88 819.516 4233.18 819.773 4233.49 819.921 4233.8 820.07 4234.16 820.144 4234.57 820.144 4235.3 820.144 4236.01 819.86 4236.69 819.293 4237.38 818.726 4238.38 817.442 4239.67 815.443L4242.31 817.186C4240.42 819.995 4238.71 821.975 4237.18 823.123 4235.65 824.271 4233.84 824.845 4231.73 824.845 4230.57 824.845 4229.58 824.636 4228.77 824.217 4227.96 823.798 4227.26 823.13 4226.66 822.211 4226.07 821.292 4225.54 819.86 4225.08 817.915 4224.25 814.457 4223.73 811.809 4223.54 809.972L4223.14 809.972C4220.27 813.997 4218.15 816.888 4216.75 818.645 4215.36 820.401 4214.22 821.698 4213.31 822.535 4212.41 823.373 4211.53 823.96 4210.68 824.298 4209.83 824.636 4208.7 824.805 4207.29 824.805 4206.02 824.805 4204.98 824.643 4204.17 824.318L4205.79 816.983 4208.63 816.983C4208.79 818.118 4209.26 818.685 4210.05 818.685 4210.43 818.685 4210.82 818.584 4211.24 818.381 4211.66 818.178 4212.26 817.692 4213.05 816.922 4213.83 816.152 4214.91 814.943 4216.29 813.295 4217.67 811.647 4219.67 809.175 4222.29 805.878 4221.88 803.744 4221.46 801.691 4221.03 799.718 4220.6 797.746 4220.15 795.909 4219.69 794.207 4219.23 792.504 4218.86 791.39 4218.56 790.863 4218.26 790.336 4217.94 789.971 4217.61 789.769 4217.27 789.566 4216.84 789.465 4216.33 789.465 4215.76 789.465 4215.25 789.593 4214.79 789.85 4214.33 790.107 4213.83 790.552 4213.29 791.187 4212.75 791.822 4212.03 792.815 4211.14 794.166L4208.51 792.423C4210.21 789.857 4211.84 787.938 4213.41 786.668 4214.98 785.399 4216.83 784.764 4218.96 784.764Z" fill-rule="evenodd"/><text fill="#000000" fill-opacity="0" font-family="Arial,Arial_MSFontService,sans-serif" font-size="40.0815" x="4204.17" y="819.835">ğ‘¥</text><path d="M4260.56 814.503 4262.02 814.503 4257.62 834.34C4257.34 835.511 4257.14 836.444 4257.04 837.139 4256.93 837.834 4256.87 838.46 4256.87 839.016 4256.87 839.771 4257.03 840.317 4257.33 840.654 4257.64 840.992 4258.1 841.16 4258.72 841.16 4259.08 841.16 4259.43 841.091 4259.79 840.952 4260.15 840.813 4260.53 840.595 4260.94 840.297 4261.34 839.999 4261.79 839.617 4262.28 839.15 4262.76 838.683 4263.31 838.122 4263.9 837.467L4265.93 839.433C4264.89 840.485 4263.96 841.374 4263.11 842.099 4262.27 842.823 4261.47 843.414 4260.71 843.871 4259.96 844.328 4259.22 844.655 4258.49 844.854 4257.77 845.052 4257 845.152 4256.19 845.152 4255.43 845.152 4254.75 845.013 4254.15 844.735 4253.54 844.457 4253.02 844.074 4252.58 843.588 4252.15 843.101 4251.81 842.521 4251.57 841.846 4251.33 841.17 4251.21 840.426 4251.21 839.612 4251.21 838.956 4251.29 838.142 4251.45 837.169 4251.61 836.196 4251.81 835.139 4252.06 833.997 4252.31 832.855 4252.58 831.659 4252.88 830.408 4253.18 829.157 4253.47 827.916 4253.76 826.685 4254.05 825.454 4254.31 824.267 4254.53 823.126 4254.76 821.984 4254.93 820.946 4255.02 820.013 4255.06 819.854 4255.08 819.7 4255.08 819.551 4255.08 819.402 4255.08 819.268 4255.08 819.149 4255.04 818.375 4254.77 817.809 4254.27 817.451 4253.76 817.094 4252.86 816.896 4251.57 816.856L4251.93 814.83ZM4258.84 802.499 4264.79 802.499 4263.33 808.903 4257.44 808.903Z" fill-rule="evenodd"/><text fill="#000000" fill-opacity="0" font-family="Arial,Arial_MSFontService,sans-serif" font-size="42.6523" x="4251.21" y="839.82">ğ‘–</text><path d="M4267.46 749.784 4269.6 749.784C4268.37 755.324 4267.25 760.387 4266.22 764.974 4265.2 769.561 4264.08 774.625 4262.87 780.165 4262.6 781.356 4262.4 782.294 4262.28 782.979 4262.16 783.664 4262.1 784.285 4262.1 784.841 4262.1 785.596 4262.25 786.142 4262.56 786.479 4262.87 786.817 4263.34 786.985 4263.98 786.985 4264.33 786.985 4264.69 786.916 4265.05 786.777 4265.41 786.638 4265.78 786.42 4266.18 786.122 4266.58 785.824 4267.02 785.442 4267.5 784.975 4267.99 784.508 4268.54 783.947 4269.16 783.292L4271.09 785.258C4270.08 786.29 4269.16 787.169 4268.34 787.894 4267.52 788.619 4266.73 789.209 4265.99 789.666 4265.24 790.123 4264.51 790.455 4263.78 790.664 4263.06 790.872 4262.28 790.977 4261.44 790.977 4260.69 790.977 4260.01 790.838 4259.4 790.56 4258.8 790.282 4258.28 789.899 4257.84 789.413 4257.4 788.926 4257.07 788.346 4256.83 787.671 4256.59 786.995 4256.47 786.251 4256.47 785.437 4256.47 784.702 4256.54 783.794 4256.69 782.711 4256.84 781.629 4257.08 780.403 4257.39 779.033 4258.25 775.22 4259.1 771.418 4259.94 767.625 4260.78 763.832 4261.47 760.923 4262.01 758.898 4262.49 756.734 4262.72 755.254 4262.72 754.46 4262.72 754.043 4262.67 753.696 4262.56 753.418 4262.45 753.14 4262.25 752.911 4261.96 752.733 4261.68 752.554 4261.29 752.425 4260.79 752.345 4260.29 752.266 4259.65 752.206 4258.85 752.167L4259.27 750.141Z" fill-rule="evenodd"/><text fill="#000000" fill-opacity="0" font-family="Arial,Arial_MSFontService,sans-serif" font-size="41.1929" x="4256.47" y="785.828">ğ‘™</text><path d="M4294.62 755.056 4299.45 755.056 4299.45 770.723 4314.19 770.723 4314.19 775.28 4299.45 775.28 4299.45 790.947 4294.62 790.947 4294.62 775.28 4279.88 775.28 4279.88 770.723 4294.62 770.723Z" fill-rule="evenodd"/><text fill="#000000" fill-opacity="0" font-family="Arial,Arial_MSFontService,sans-serif" font-size="35.8911" x="4279.88" y="786.461">+</text><path d="M4338.49 752.077 4340.31 752.077C4340.27 753.169 4340.24 754.147 4340.22 755.011 4340.2 755.875 4340.19 756.714 4340.17 757.528 4340.17 758.342 4340.16 759.146 4340.16 759.941L4340.16 782.577C4340.16 783.193 4340.18 783.724 4340.22 784.171 4340.26 784.618 4340.32 784.995 4340.41 785.303 4340.5 785.61 4340.62 785.873 4340.77 786.092 4340.92 786.31 4341.09 786.499 4341.29 786.658 4341.53 786.896 4341.85 787.08 4342.25 787.209 4342.64 787.338 4343.15 787.447 4343.76 787.536 4344.38 787.626 4345.12 787.695 4345.98 787.745 4346.85 787.795 4347.88 787.829 4349.1 787.849L4349.1 790.441 4325.48 790.441 4325.48 787.849C4326.65 787.81 4327.64 787.765 4328.45 787.715 4329.27 787.666 4329.96 787.596 4330.54 787.507 4331.12 787.417 4331.58 787.318 4331.92 787.209 4332.27 787.1 4332.57 786.966 4332.83 786.807 4333.11 786.628 4333.35 786.434 4333.55 786.226 4333.75 786.017 4333.91 785.754 4334.02 785.437 4334.14 785.119 4334.24 784.732 4334.31 784.275 4334.38 783.818 4334.41 783.252 4334.41 782.577L4334.41 761.221C4334.41 760.447 4334.26 759.901 4333.96 759.583 4333.67 759.265 4333.24 759.107 4332.68 759.107 4332.07 759.107 4331.16 759.424 4329.94 760.06 4328.73 760.695 4327.16 761.638 4325.24 762.889 4324.98 762.433 4324.74 761.976 4324.52 761.519 4324.3 761.062 4324.08 760.596 4323.84 760.119 4326.3 758.769 4328.74 757.424 4331.15 756.083 4333.56 754.743 4336.01 753.408 4338.49 752.077Z" fill-rule="evenodd"/><text fill="#000000" fill-opacity="0" font-family="Arial,Arial_MSFontService,sans-serif" font-size="38.3633" x="4323.84" y="785.645">1</text><path d="M3716.5 795.5 3838 674.5 3959.5 795.5 3838 916.5Z" stroke="#042433" stroke-width="6.875" stroke-miterlimit="8" fill="none" fill-rule="evenodd"/><path d="M3838.5 674.5 3838.5 917.117" stroke="#000000" stroke-width="6.875" stroke-miterlimit="8" fill="none" fill-rule="evenodd"/><path d="M3716.5 795.5 3959.12 795.5" stroke="#000000" stroke-width="6.875" stroke-miterlimit="8" fill="none" fill-rule="evenodd"/><path d="M101.062 724.444 101.062 246.942 3841.12 246.942 3841.12 651.583 3834.24 651.583 3834.24 250.379 3837.68 253.817 104.5 253.817 107.937 250.379 107.937 724.444ZM3851.43 647 3837.68 674.5 3823.93 647Z" fill="#4EA72E"/><path d="M3839.8 1161.44 3835.51 939.479 3842.38 939.346 3846.68 1161.3ZM3825.28 944.261 3838.5 916.5 3852.78 943.729Z"/><path d="M0.011489-3.43748 188.084-2.80889 188.061 4.06607-0.011489 3.43748ZM183.535-13.1367 210.989 0.705184 183.443 14.3632Z" transform="matrix(1 0 0 -1 3959.5 795.205)"/></g></svg>